<svg xmlns="http://www.w3.org/2000/svg" viewBox="0 0 61.62 20.1"><defs><style>.cls-1{opacity:0.4;}.cls-2{fill:#040000;}</style></defs><title>자산 1</title><g id="레이어_2" data-name="레이어 2"><g id="Layer_3" data-name="Layer 3"><g id="Somul_04" class="cls-1"><path class="cls-2" d="M3.73,19.44V19H5.42V18h.5v1H7.61v.42Zm.56-1.19L4,17.88a2.78,2.78,0,0,0,.93-.56,1.24,1.24,0,0,0,.46-.86V16h.54v.48a1.21,1.21,0,0,0,.46.86,2.75,2.75,0,0,0,.94.56L7,18.25a2.75,2.75,0,0,1-1.38-1.08A2.75,2.75,0,0,1,4.29,18.25Z"/><path class="cls-2" d="M9.83,19.35v-.42h3.88v.42Zm3.45-1.18h-3v-.42H11l0-1.25h-.54v-.42h2.76v.42h-.54l0,1.25h.66Zm-1.85-.42h.74l0-1.25H11.4Z"/><path class="cls-2" d="M15.93,19.49v-.42h3.88v.42Zm.61-1.21V16.07h2.64v.42H17V17h2.09v.43H17v.48h2.21v.42Z"/><path class="cls-2" d="M22.83,19.84V18.46l-.77,0,0-.43c.21,0,.55,0,1,0l1.13-.09,0,.43-.89.07v1.42Zm-.41-3.58a1,1,0,0,1,1.31,0,.83.83,0,0,1,.26.61.85.85,0,0,1-.26.61,1,1,0,0,1-1.31,0,.84.84,0,0,1-.26-.61A.83.83,0,0,1,22.42,16.26Zm.66,1a.44.44,0,0,0,.31-.12.41.41,0,0,0,0-.62.44.44,0,1,0-.31.74Zm1.78,2.44h-.48v-.51h-.66v-.44h.66V15.91h.48Zm.84.15h-.48v-4h.48Z"/><path class="cls-2" d="M31.72,15.84v4h-.5V17.47h-.68a1.1,1.1,0,0,1-.32.63,1.14,1.14,0,0,1-1.95-.82,1.12,1.12,0,0,1,.33-.82,1.17,1.17,0,0,1,1.61,0,1.1,1.1,0,0,1,.31.59h.68v-1.2ZM29.42,18a.7.7,0,0,0,0-1.4.7.7,0,0,0,0,1.4Z"/><path class="cls-2" d="M37.06,19.74h-.48V17.52h-.34a1.3,1.3,0,0,1-.29.74.91.91,0,0,1-1.43,0,1.47,1.47,0,0,1,0-1.77.9.9,0,0,1,1.43,0,1.28,1.28,0,0,1,.27.61h.36V15.91h.48Zm-1.82-1.6a.44.44,0,0,0,.37-.21,1.08,1.08,0,0,0,0-1.12.44.44,0,0,0-.37-.21c-.29,0-.52.31-.52.77S34.94,18.14,35.24,18.14Zm2.66,1.75h-.48v-4h.48Z"/><path class="cls-2" d="M42.46,20.1V19h2.08v-.28H42.45v-.41h1V18H41.81v-.42h3.88V18H44v.32h1v1.09H43v.29h2.19v.42Zm0-2.82V16H45v1.32Zm2.09-.9H43v.48h1.59Z"/><path class="cls-2" d="M47.91,18V17.6h3.88V18Zm.63-.74V16h2.61v.42H49v.49h2.17v.42Zm0,2.82V19h2.08v-.28H48.55v-.41h2.58v1.09H49.05v.29h2.19v.42Z"/><path class="cls-2" d="M54.33,16.12h1.95v.43H54.83v1.69a10.91,10.91,0,0,0,1.81-.15l.06.42a12.17,12.17,0,0,1-2.37.16Zm3.06-.28v1.31h.68v.43h-.68v2.31h-.5v-4Z"/><rect class="cls-2" y="13.25" width="61.62" height="0.73"/><path class="cls-2" d="M7.11,2.3C6.43,2.3,6,2.54,6,3c0,1.79,5.68.77,5.68,4.65,0,2.2-1.94,3.33-4.34,3.33a8.11,8.11,0,0,1-5-1.73l1.09-2.2A6.89,6.89,0,0,0,7.36,8.72c.83,0,1.36-.31,1.36-.88C8.71,6,3,7.12,3,3.3,3,1.28,4.74,0,7.34,0a8.29,8.29,0,0,1,4.31,1.22L10.59,3.45A8.39,8.39,0,0,0,7.11,2.3Z"/><path class="cls-2" d="M24.27,5.51A5.55,5.55,0,0,1,18.43,11a5.51,5.51,0,1,1,0-11A5.52,5.52,0,0,1,24.27,5.51Zm-8.78,0a3,3,0,0,0,3,3.11,3,3,0,0,0,2.91-3.11,3,3,0,0,0-2.91-3.08A3,3,0,0,0,15.49,5.53Z"/><path class="cls-2" d="M28.94.12l2.86,6.3L34.67.12h3.08v10.8h-2.5l0-6.84L32.72,9.84H30.88L28.37,4.08v6.84H25.86V.12Z"/><path class="cls-2" d="M44.86,8.64A2,2,0,0,0,47,6.39V.12h2.82V6.39c0,2.85-1.91,4.65-4.94,4.65s-5-1.8-5-4.65V.12h2.82V6.39A2.11,2.11,0,0,0,44.86,8.64Z"/><path class="cls-2" d="M54.71.12V8.52h4.58v2.4H51.89V.12Z"/></g></g></g></svg>