<svg xmlns="http://www.w3.org/2000/svg" xmlns:xlink="http://www.w3.org/1999/xlink" viewBox="0 0 1315.2 1307.65"><defs><style>.cls-1{fill:none;}.cls-2{fill:#0e3691;}.cls-3{fill:url(#새_패턴_견본_1);}.cls-4{fill:url(#새_패턴_견본_1-3);}.cls-5{fill:#cececd;}.cls-6{fill:#010000;opacity:0.4;}.cls-7{fill:#133792;}.cls-8{fill:#f4bc1c;}.cls-9{fill:url(#새_패턴_견본_1-33);}</style><pattern id="새_패턴_견본_1" data-name="새 패턴 견본 1" width="8" height="12" patternTransform="translate(-101.89 -13.37) scale(1.37)" patternUnits="userSpaceOnUse" viewBox="0 0 8 12"><rect class="cls-1" width="8" height="12"/><circle class="cls-2" cx="8" cy="12" r="1.65"/><circle class="cls-2" cy="12" r="1.65"/><circle class="cls-2" cx="4" cy="6" r="1.65"/><circle class="cls-2" cx="8" r="1.65"/><circle class="cls-2" r="1.65"/></pattern><pattern id="새_패턴_견본_1-3" data-name="새 패턴 견본 1" width="8" height="12" patternTransform="translate(26.24 -29.31) scale(0.92)" patternUnits="userSpaceOnUse" viewBox="0 0 8 12"><rect class="cls-1" width="8" height="12"/><circle class="cls-2" cx="8" cy="12" r="1.65"/><circle class="cls-2" cy="12" r="1.65"/><circle class="cls-2" cx="4" cy="6" r="1.65"/><circle class="cls-2" cx="8" r="1.65"/><circle class="cls-2" r="1.65"/></pattern><pattern id="새_패턴_견본_1-33" data-name="새 패턴 견본 1" width="8" height="12" patternTransform="translate(25.32 -32.07) scale(0.92)" patternUnits="userSpaceOnUse" viewBox="0 0 8 12"><rect class="cls-1" width="8" height="12"/><circle class="cls-2" cx="8" cy="12" r="1.65"/><circle class="cls-2" cy="12" r="1.65"/><circle class="cls-2" cx="4" cy="6" r="1.65"/><circle class="cls-2" cx="8" r="1.65"/><circle class="cls-2" r="1.65"/></pattern></defs><title>자산 2</title><g id="레이어_2" data-name="레이어 2"><g id="Layer_1" data-name="Layer 1"><circle class="cls-3" cx="475.19" cy="748.36" r="4.03"/><path class="cls-4" d="M512,598s-27.49,3.73-24.06,28.12,41.51,18.41,54.44,52-28.38,32.45,8.74,53.29,87.54-3.13,130.06,1.64,57.24-28.28,57.24-28.28Z"/><path class="cls-2" d="M589.16,741.29c-15.69,0-28-2.8-38.68-8.8-10.33-5.8-15.2-10.15-16.28-14.54-1-3.88,1.17-7.13,3.63-10.9,4-6.15,9-13.81,3.38-28.46-6.58-17.11-20-23.73-31.74-29.57-10.82-5.35-21-10.41-22.76-22.68-1-7,.4-13.09,4.13-18,7.18-9.49,20.39-11.38,20.95-11.45a1.2,1.2,0,0,1,.67.1L738.88,703.71a1.2,1.2,0,0,1,.59,1.57c-.13.3-13.54,29.46-50.12,29.46h0a75,75,0,0,1-8.35-.48,108,108,0,0,0-12.1-.64c-12.94,0-26.65,1.95-39.9,3.83S602.07,741.29,589.16,741.29Zm-77.39-142c-2.06.36-13.06,2.59-19,10.48-3.33,4.4-4.56,9.86-3.66,16.23,1.55,11,10.77,15.59,21.45,20.87,12.19,6,26,12.87,32.92,30.85,6.08,15.79.48,24.37-3.61,30.63-2.24,3.43-4,6.14-3.31,9,.88,3.59,5.69,7.73,15.12,13,10.33,5.8,22.25,8.5,37.51,8.5,12.73,0,26.33-1.93,39.49-3.8,13.34-1.9,27.13-3.86,40.24-3.86a110.09,110.09,0,0,1,12.37.65,72.79,72.79,0,0,0,8.08.46c31.13,0,44.68-21.9,47.4-27Z"/><path class="cls-4" d="M1187.94,763c3.09,3-8.93,9.5,0,18.62s35.89,2.14,44.33,25-9.19,48.66-41.54,51.76-40.76-.72-57.5,13.79-.88,37.43-32.37,44.3-37.68-21.75-72.61-22.51-44.45,19.76-78.13,0S928.9,869,902.18,857.67c-22.16-9.37-8.08-15.75-28.32-27.53-12.52-7.29-17.56,4.17-38.92-6.37-38.21-18.85-29.85-39.52-29.85-39.52Z"/><path class="cls-2" d="M1091.55,918.81c-11.58,0-19.54-5.2-28-10.71-9.43-6.15-19.18-12.52-35.35-12.87-13-.29-22.56,2.46-31,4.87-6.73,1.93-13.08,3.75-20.11,3.75-8.64,0-17.42-2.79-27.62-8.78-17-9.95-22.43-16.38-26.84-21.56s-7.82-9.18-21-14.74c-12-5.08-13.83-9.44-15.75-14.06-1.66-4-3.37-8.11-12.71-13.54a16.39,16.39,0,0,0-8.65-2.44,41.5,41.5,0,0,0-5.13.43,51.68,51.68,0,0,1-6.75.53c-5.79,0-11.61-1.54-18.32-4.86-38.76-19.13-30.78-40.16-30.43-41a1.2,1.2,0,0,1,1-.75l382.84-21.22a1.22,1.22,0,0,1,.9.34c1.81,1.76.52,4-.73,6.15-2,3.46-4.26,7.38.75,12.49,3,3.11,8.52,4.22,14.85,5.51,10.78,2.19,24.2,4.91,29.75,20a35.13,35.13,0,0,1-3.54,31.42c-7.74,12.31-22,20.31-39,21.95-7.77.75-14.06,1.09-19.62,1.39-17,.93-24.79,1.35-37.21,12.11-6.46,5.59-7.86,12.62-9.21,19.42-2,10.26-4.16,20.88-23.69,25.14A45.06,45.06,0,0,1,1091.55,918.81Zm-65.2-26,1.92,0c16.86.37,27.35,7.22,36.61,13.26,8.13,5.31,15.81,10.32,26.67,10.32a42.67,42.67,0,0,0,9.05-1c18-3.93,19.78-12.89,21.85-23.27,1.43-7.2,2.92-14.64,10-20.77,13-11.3,21.07-11.74,38.66-12.69,5.53-.3,11.79-.64,19.52-1.38,16.3-1.57,29.87-9.16,37.2-20.84a32.78,32.78,0,0,0,3.33-29.32c-5.09-13.81-17.25-16.27-28-18.45-6.44-1.31-12.52-2.54-16.09-6.18-6.28-6.41-3.17-11.8-1.11-15.36a7.81,7.81,0,0,0,1.28-2.86L806,785.39a19.31,19.31,0,0,0,.89,11.33c4.38,12,18,20.73,28.59,26,6.37,3.14,11.86,4.61,17.26,4.61a50.07,50.07,0,0,0,6.45-.51,43.21,43.21,0,0,1,5.43-.45,18.65,18.65,0,0,1,9.85,2.77c10,5.84,12,10.54,13.71,14.69,1.8,4.33,3.36,8.08,14.47,12.77,13.67,5.78,17.29,10,21.86,15.39,4.29,5,9.62,11.3,26.22,21,9.83,5.76,18.22,8.45,26.41,8.45,6.69,0,12.6-1.69,19.45-3.66C1004.74,895.47,1014,892.82,1026.35,892.82Z"/><path class="cls-4" d="M1263.58,709.65s-1,4.17,4.75,7,22.59,6.83,14.58,17.3-19,7.15-28.87,12.42-7,13.29-19.93,13.29-10.54-5.73-16.27-7.45-7-.36-7.11-2.3S1263.58,709.65,1263.58,709.65Z"/><path class="cls-2" d="M1234.1,760.81c-8.78,0-11-2.58-13-4.86a7.1,7.1,0,0,0-3.59-2.64,24.31,24.31,0,0,0-5-1c-1.4-.14-2.85-.29-3-2.4-.06-1-.1-1.86,26.87-21.87,13.08-9.7,26.35-19.3,26.48-19.39a1.2,1.2,0,0,1,1.87,1.25c0,.12-.64,3.3,4.11,5.61.89.43,2.08.9,3.44,1.45,5.19,2.06,12.29,4.88,13.69,9.93.67,2.41,0,5-2.13,7.73-5.25,6.85-11.77,8.12-18.09,9.35-3.73.73-7.58,1.48-11.17,3.39a20.1,20.1,0,0,0-7.2,6.68C1244.83,757.54,1242.41,760.81,1234.1,760.81Zm-21.92-10.92.56.06a26.41,26.41,0,0,1,5.44,1.07,9.37,9.37,0,0,1,4.71,3.36c1.73,2,3.52,4,11.21,4,7.11,0,8.9-2.42,11.37-5.77a22.37,22.37,0,0,1,8-7.37c3.9-2.09,7.94-2.87,11.84-3.63,6.14-1.2,11.95-2.33,16.64-8.46,1.62-2.12,2.19-4,1.72-5.63-1.08-3.9-7.54-6.47-12.26-8.34-1.41-.56-2.63-1-3.61-1.52-3.61-1.75-4.89-4-5.31-5.78C1243.84,725.43,1216,746,1212.17,749.9Z"/><polyline class="cls-5" points="1263.58 661.13 977.82 826.11 490.35 544.67 776.11 379.69 910.58 457.32 1129.1 583.49"/><path class="cls-2" d="M977.82,827.3a1.21,1.21,0,0,1-.6-.16L489.75,545.71a1.2,1.2,0,0,1,0-2.07l285.76-165a1.2,1.2,0,0,1,1.2,0l353,203.8a1.2,1.2,0,1,1-1.2,2.07L776.11,381.07,492.75,544.67,977.82,824.72,1263,660.09a1.2,1.2,0,1,1,1.2,2.07l-285.76,165A1.21,1.21,0,0,1,977.82,827.3Z"/><polygon class="cls-5" points="490.35 544.67 977.82 826.11 977.82 884.34 490.35 602.9 490.35 544.67"/><path class="cls-2" d="M977.82,885.53a1.22,1.22,0,0,1-.6-.16L489.75,603.93a1.2,1.2,0,0,1-.6-1V544.67a1.2,1.2,0,0,1,1.8-1L978.42,825.07a1.2,1.2,0,0,1,.6,1v58.23a1.2,1.2,0,0,1-.6,1A1.22,1.22,0,0,1,977.82,885.53ZM491.55,602.2,976.62,882.26V826.8L491.55,546.74Z"/><line class="cls-5" x1="1105.01" y1="810.9" x2="1095.68" y2="816.29"/><path class="cls-2" d="M1095.68,817.49a1.2,1.2,0,0,1-.6-2.24l9.33-5.38a1.2,1.2,0,1,1,1.2,2.07l-9.33,5.38A1.19,1.19,0,0,1,1095.68,817.49Z"/><polyline class="cls-5" points="1070.47 830.84 977.82 884.34 977.82 826.11 1263.58 661.13 1263.58 719.36 1148.6 785.74"/><path class="cls-2" d="M977.82,885.53a1.22,1.22,0,0,1-.6-.16,1.2,1.2,0,0,1-.6-1V826.11a1.2,1.2,0,0,1,.6-1l285.76-165a1.2,1.2,0,0,1,1.8,1v58.23a1.2,1.2,0,0,1-.6,1l-115,66.38a1.2,1.2,0,1,1-1.2-2.07l114.38-66V663.2L979,826.8v55.46l90.86-52.46a1.2,1.2,0,1,1,1.2,2.07l-92.65,53.49A1.22,1.22,0,0,1,977.82,885.53Z"/><line class="cls-5" x1="1105.01" y1="810.9" x2="1095.68" y2="816.29"/><path class="cls-2" d="M1095.68,817.49a1.2,1.2,0,0,1-.6-2.24l9.33-5.38a1.2,1.2,0,1,1,1.2,2.07l-9.33,5.38A1.19,1.19,0,0,1,1095.68,817.49Z"/><polygon class="cls-5" points="776.11 379.69 776.11 30.31 826.54 1.2 1314 282.64 1314 632.01 1263.58 661.13 1129.1 583.49 910.58 457.32 776.11 379.69"/><path class="cls-2" d="M1263.58,662.32a1.19,1.19,0,0,1-.6-.16L775.51,380.72a1.2,1.2,0,0,1-.6-1V30.31a1.2,1.2,0,0,1,.6-1L825.94.16a1.2,1.2,0,0,1,1.2,0L1314.6,281.6a1.2,1.2,0,0,1,.6,1V632a1.2,1.2,0,0,1-.6,1l-50.43,29.11A1.19,1.19,0,0,1,1263.58,662.32ZM777.31,379l486.27,280.75,49.23-28.42v-348L826.54,2.58,777.31,31Z"/><polygon class="cls-5" points="1246.77 340.87 792.92 78.84 792.92 350.57 1246.77 612.6 1246.77 340.87"/><path class="cls-2" d="M1246.77,613.8a1.19,1.19,0,0,1-.6-.16l-453.85-262a1.2,1.2,0,0,1-.6-1V78.84a1.2,1.2,0,0,1,1.8-1l453.85,262a1.2,1.2,0,0,1,.6,1V612.6a1.2,1.2,0,0,1-1.2,1.2ZM794.12,349.88l451.45,260.65v-269L794.12,80.91Z"/><polygon class="cls-5" points="826.54 1.2 776.11 30.31 1263.58 311.75 1314 282.64 826.54 1.2"/><path class="cls-2" d="M1263.58,312.95a1.2,1.2,0,0,1-.6-.16L775.51,31.35a1.2,1.2,0,0,1,0-2.07L825.94.16a1.2,1.2,0,0,1,1.2,0L1314.6,281.6a1.2,1.2,0,0,1,0,2.07l-50.43,29.11A1.2,1.2,0,0,1,1263.58,312.95ZM778.5,30.31l485.07,280.06,48-27.73L826.54,2.58Z"/><polygon class="cls-5" points="1263.58 311.75 1263.58 311.75 1263.58 661.13 1314 632.01 1314 282.64 1314 282.64 1263.58 311.75"/><path class="cls-2" d="M1263.58,662.32a1.2,1.2,0,0,1-1.2-1.2V311.75a1.2,1.2,0,0,1,.6-1l50.43-29.11a1.2,1.2,0,0,1,1.79,1V632a1.2,1.2,0,0,1-.6,1l-50.43,29.11A1.19,1.19,0,0,1,1263.58,662.32Zm1.2-349.88V659.05l48-27.73V284.71Z"/><path class="cls-2" d="M1024.7,193.25c0,3.08-2.18,4.32-4.86,2.77a10.7,10.7,0,0,1-4.86-8.38c0-3.08,2.17-4.32,4.86-2.77A10.71,10.71,0,0,1,1024.7,193.25Z"/><path class="cls-5" d="M1303.18,638.26h0l-39.6,22.86v45.44C1285.45,693.94,1303.18,663.36,1303.18,638.26Z"/><path class="cls-2" d="M1263.58,707.76a1.2,1.2,0,0,1-1.2-1.2V661.13a1.2,1.2,0,0,1,.6-1l39.6-22.86a1.2,1.2,0,0,1,1.8,1c0,25.44-18,56.54-40.2,69.34A1.2,1.2,0,0,1,1263.58,707.76Zm1.2-45.95v42.63c20.07-12.64,36.24-40.52,37.16-64.08Z"/><path class="cls-2" d="M1230,720.55a1.2,1.2,0,0,1-1.2-1.2V699.94a1.2,1.2,0,0,1,.6-1l16.81-9.71a1.2,1.2,0,0,1,1.8,1v19.41a1.2,1.2,0,0,1-.6,1l-16.81,9.71A1.2,1.2,0,0,1,1230,720.55Zm1.2-19.92v16.64l14.41-8.32V692.31Z"/><polygon class="cls-5" points="1213.15 709.65 1213.15 729.06 1162.72 758.17 1162.72 738.76 1213.15 709.65"/><path class="cls-2" d="M1162.72,759.37a1.2,1.2,0,0,1-1.2-1.2V738.76a1.2,1.2,0,0,1,.6-1l50.43-29.11a1.2,1.2,0,0,1,1.8,1v19.41a1.2,1.2,0,0,1-.6,1l-50.43,29.12A1.2,1.2,0,0,1,1162.72,759.37Zm1.2-19.92V756.1l48-27.73V711.72Z"/><path class="cls-2" d="M1094.53,793.24a1.2,1.2,0,0,1-.6-2.23l9-5.19a1.2,1.2,0,0,1,1.2,2.08l-9,5.19A1.19,1.19,0,0,1,1094.53,793.24Z"/><path class="cls-2" d="M1061.87,812.1a1.2,1.2,0,0,1-1.2-1.24l.34-10a1.2,1.2,0,0,1,.6-1l84-48.52a1.2,1.2,0,0,1,1.79,1.09l-.34,7.23a1.19,1.19,0,0,1-1.25,1.14,1.2,1.2,0,0,1-1.14-1.25l.24-5-81.57,47.1-.25,7.16,5.24-3a1.2,1.2,0,0,1,1.2,2.08l-7.11,4.11A1.21,1.21,0,0,1,1061.87,812.1Z"/><polygon class="cls-5" points="784.51 491.29 767.71 510.7 834.94 549.52 834.94 549.52 834.94 462.18 784.51 491.29"/><path class="cls-2" d="M834.94,550.72a1.19,1.19,0,0,1-.6-.16l-67.24-38.82a1.2,1.2,0,0,1-.31-1.82l16.81-19.41a1.18,1.18,0,0,1,.31-.25l50.43-29.11a1.2,1.2,0,0,1,1.8,1v87.34a1.2,1.2,0,0,1-1.2,1.2Zm-65.38-40.33,64.18,37.06V464.25l-48.46,28Z"/><polygon class="cls-5" points="885.37 491.29 834.94 462.18 834.94 462.18 834.94 549.52 902.18 510.7 885.37 491.29"/><path class="cls-2" d="M834.94,550.72a1.2,1.2,0,0,1-1.2-1.2V462.18a1.2,1.2,0,0,1,1.8-1L886,490.25a1.2,1.2,0,0,1,.31.25l16.81,19.41a1.2,1.2,0,0,1-.31,1.82l-67.24,38.82A1.19,1.19,0,0,1,834.94,550.72Zm1.2-86.47v83.19l64.18-37.06L884.6,492.23Z"/><polygon class="cls-5" points="834.94 520.4 885.37 491.29 834.94 462.18 784.51 491.29 834.94 520.4"/><path class="cls-2" d="M834.94,521.6a1.19,1.19,0,0,1-.6-.16l-50.43-29.11a1.2,1.2,0,0,1,0-2.07l50.43-29.11a1.2,1.2,0,0,1,1.2,0L886,490.25a1.2,1.2,0,0,1,0,2.07l-50.43,29.11A1.2,1.2,0,0,1,834.94,521.6Zm-48-30.31,48,27.73,48-27.73-48-27.73Z"/><polygon class="cls-5" points="851.75 530.11 834.94 549.52 902.18 588.34 902.18 588.34 902.18 501 851.75 530.11"/><path class="cls-2" d="M902.18,589.54a1.2,1.2,0,0,1-.6-.16l-67.24-38.82a1.2,1.2,0,0,1-.31-1.82l16.81-19.41a1.17,1.17,0,0,1,.31-.25L901.58,500a1.2,1.2,0,0,1,1.8,1v87.34a1.2,1.2,0,0,1-1.2,1.2ZM836.8,549.21,901,586.26V503.07l-48.46,28Z"/><polygon class="cls-5" points="952.61 530.11 902.18 501 902.18 501 902.18 588.34 969.41 549.52 952.61 530.11"/><path class="cls-2" d="M902.18,589.54a1.2,1.2,0,0,1-1.2-1.2V501a1.2,1.2,0,0,1,1.8-1l50.43,29.12a1.2,1.2,0,0,1,.31.25l16.81,19.41a1.2,1.2,0,0,1-.31,1.82l-67.24,38.82A1.2,1.2,0,0,1,902.18,589.54Zm1.2-86.47v83.19l64.19-37.06L951.83,531Z"/><polygon class="cls-5" points="902.18 559.22 952.61 530.11 902.18 501 851.75 530.11 902.18 559.22"/><path class="cls-2" d="M902.18,560.42a1.2,1.2,0,0,1-.6-.16l-50.43-29.11a1.2,1.2,0,0,1,0-2.07L901.58,500a1.2,1.2,0,0,1,1.2,0l50.43,29.12a1.2,1.2,0,0,1,0,2.07l-50.43,29.11A1.19,1.19,0,0,1,902.18,560.42Zm-48-30.31,48,27.73,48-27.73-48-27.73Z"/><polygon class="cls-5" points="918.99 568.93 902.18 588.34 969.41 627.16 969.41 627.16 969.41 539.82 918.99 568.93"/><path class="cls-2" d="M969.41,628.36a1.2,1.2,0,0,1-.6-.16l-67.24-38.82a1.2,1.2,0,0,1-.31-1.82l16.81-19.41a1.2,1.2,0,0,1,.31-.25l50.43-29.11a1.2,1.2,0,0,1,1.8,1v87.34a1.2,1.2,0,0,1-1.2,1.2ZM904,588l64.18,37.06V541.89l-48.46,28Z"/><polygon class="cls-5" points="1019.84 568.93 969.41 539.82 969.41 539.82 969.41 627.16 1036.65 588.34 1019.84 568.93"/><path class="cls-2" d="M969.41,628.36a1.2,1.2,0,0,1-1.2-1.2V539.82a1.2,1.2,0,0,1,1.8-1l50.43,29.11a1.19,1.19,0,0,1,.31.25l16.81,19.41a1.2,1.2,0,0,1-.31,1.82L970,628.2A1.19,1.19,0,0,1,969.41,628.36Zm1.2-86.47v83.19L1034.8,588l-15.73-18.16Z"/><polygon class="cls-5" points="969.41 598.04 1019.84 568.93 969.41 539.82 918.99 568.93 969.41 598.04"/><path class="cls-2" d="M969.41,599.24a1.2,1.2,0,0,1-.6-.16L918.39,570a1.2,1.2,0,0,1,0-2.07l50.43-29.11a1.19,1.19,0,0,1,1.2,0l50.43,29.11a1.2,1.2,0,0,1,0,2.07L970,599.08A1.19,1.19,0,0,1,969.41,599.24Zm-48-30.31,48,27.73,48-27.73-48-27.73Z"/><polygon class="cls-5" points="717.28 530.11 700.47 549.52 767.71 588.34 767.71 588.34 767.71 501 717.28 530.11"/><path class="cls-2" d="M767.7,589.54a1.2,1.2,0,0,1-.6-.16l-67.24-38.82a1.2,1.2,0,0,1-.31-1.82l16.81-19.41a1.19,1.19,0,0,1,.31-.25L767.11,500a1.2,1.2,0,0,1,1.8,1v87.34a1.2,1.2,0,0,1-1.2,1.2Zm-65.38-40.33,64.18,37.06V503.07L718,531Z"/><polygon class="cls-5" points="818.13 530.11 767.71 501 767.71 501 767.71 588.34 834.94 549.52 818.13 530.11"/><path class="cls-2" d="M767.7,589.54a1.2,1.2,0,0,1-1.2-1.2V501a1.2,1.2,0,0,1,1.8-1l50.43,29.12a1.16,1.16,0,0,1,.31.25l16.81,19.41a1.2,1.2,0,0,1-.31,1.82L768.3,589.38A1.19,1.19,0,0,1,767.7,589.54Zm1.2-86.47v83.19l64.18-37.06L817.36,531Z"/><polygon class="cls-5" points="767.71 559.22 818.13 530.11 767.71 501 717.28 530.11 767.71 559.22"/><path class="cls-2" d="M767.7,560.42a1.19,1.19,0,0,1-.6-.16l-50.43-29.11a1.2,1.2,0,0,1,0-2.07L767.11,500a1.2,1.2,0,0,1,1.2,0l50.43,29.12a1.2,1.2,0,0,1,0,2.07L768.3,560.26A1.19,1.19,0,0,1,767.7,560.42Zm-48-30.31,48,27.73,48-27.73-48-27.73Z"/><polygon class="cls-5" points="784.51 568.93 767.71 588.34 834.94 627.16 834.94 627.16 834.94 539.82 784.51 568.93"/><path class="cls-2" d="M834.94,628.36a1.19,1.19,0,0,1-.6-.16l-67.24-38.82a1.2,1.2,0,0,1-.31-1.82l16.81-19.41a1.18,1.18,0,0,1,.31-.25l50.43-29.11a1.2,1.2,0,0,1,1.8,1v87.34a1.2,1.2,0,0,1-1.2,1.2ZM769.56,588l64.18,37.06v-83.2l-48.46,28Z"/><polygon class="cls-5" points="885.37 568.93 834.94 539.82 834.94 539.82 834.94 627.16 902.18 588.34 885.37 568.93"/><path class="cls-2" d="M834.94,628.36a1.2,1.2,0,0,1-1.2-1.2V539.81a1.2,1.2,0,0,1,1.8-1L886,567.89a1.2,1.2,0,0,1,.31.25l16.81,19.41a1.2,1.2,0,0,1-.31,1.82L835.54,628.2A1.2,1.2,0,0,1,834.94,628.36Zm1.2-86.47v83.2L900.32,588,884.6,569.87Z"/><polygon class="cls-5" points="834.94 598.04 885.37 568.93 834.94 539.82 784.51 568.93 834.94 598.04"/><path class="cls-2" d="M834.94,599.24a1.19,1.19,0,0,1-.6-.16L783.91,570a1.2,1.2,0,0,1,0-2.07l50.43-29.11a1.19,1.19,0,0,1,1.2,0L886,567.89a1.2,1.2,0,0,1,0,2.07l-50.43,29.11A1.19,1.19,0,0,1,834.94,599.24Zm-48-30.31,48,27.73,48-27.73-48-27.73Z"/><polygon class="cls-5" points="986.22 607.75 969.41 627.16 1036.65 665.98 1036.65 665.98 1036.65 578.63 986.22 607.75"/><path class="cls-2" d="M1036.65,667.18a1.2,1.2,0,0,1-.6-.16L968.82,628.2a1.2,1.2,0,0,1-.31-1.82L985.32,607a1.16,1.16,0,0,1,.31-.25l50.43-29.11a1.2,1.2,0,0,1,1.8,1V666a1.2,1.2,0,0,1-1.2,1.2Zm-65.38-40.33,64.18,37.06V580.71l-48.46,28Z"/><polygon class="cls-5" points="1087.08 607.75 1036.65 578.63 1036.65 578.63 1036.65 665.98 1103.89 627.16 1087.08 607.75"/><path class="cls-2" d="M1036.65,667.18a1.2,1.2,0,0,1-1.2-1.2V578.63a1.2,1.2,0,0,1,1.79-1l50.43,29.11a1.2,1.2,0,0,1,.31.25l16.81,19.41a1.2,1.2,0,0,1-.31,1.82L1037.25,667A1.19,1.19,0,0,1,1036.65,667.18Zm1.2-86.47V663.9L1102,626.85l-15.73-18.16Z"/><polygon class="cls-5" points="1036.65 636.86 1087.08 607.75 1036.65 578.63 986.22 607.75 1036.65 636.86"/><path class="cls-2" d="M1036.65,638.06a1.2,1.2,0,0,1-.6-.16l-50.43-29.12a1.2,1.2,0,0,1,0-2.07l50.43-29.11a1.19,1.19,0,0,1,1.2,0l50.43,29.11a1.2,1.2,0,0,1,0,2.07l-50.43,29.12A1.19,1.19,0,0,1,1036.65,638.06Zm-48-30.31,48,27.73,48-27.73-48-27.73Z"/><polygon class="cls-5" points="851.75 607.75 834.94 627.16 969.41 704.8 969.41 704.8 969.41 617.45 902.18 578.63 851.75 607.75"/><path class="cls-2" d="M969.41,706a1.21,1.21,0,0,1-.6-.16L834.34,628.2a1.2,1.2,0,0,1-.31-1.82L850.85,607a1.18,1.18,0,0,1,.31-.25l50.43-29.11a1.2,1.2,0,0,1,1.2,0L970,616.42a1.2,1.2,0,0,1,.6,1V704.8a1.2,1.2,0,0,1-1.2,1.2ZM836.8,626.85l131.42,75.88V618.15l-66-38.13-49.65,28.67Z"/><polygon class="cls-5" points="1019.84 646.57 969.41 617.45 969.41 617.45 969.41 704.8 1036.65 665.98 1019.84 646.57"/><path class="cls-2" d="M969.41,706a1.2,1.2,0,0,1-1.2-1.2V617.45a1.2,1.2,0,0,1,1.8-1l50.43,29.11a1.2,1.2,0,0,1,.31.25l16.81,19.41a1.2,1.2,0,0,1-.31,1.82L970,705.83A1.2,1.2,0,0,1,969.41,706Zm1.2-86.47v83.19l64.18-37.06-15.73-18.16Z"/><polygon class="cls-5" points="969.41 675.68 1019.84 646.57 902.18 578.63 851.75 607.75 969.41 675.68"/><path class="cls-2" d="M969.41,676.88a1.2,1.2,0,0,1-.6-.16L851.15,608.78a1.2,1.2,0,0,1,0-2.07l50.43-29.11a1.2,1.2,0,0,1,1.2,0l117.66,67.93a1.2,1.2,0,0,1,0,2.07L970,676.72A1.19,1.19,0,0,1,969.41,676.88ZM854.15,607.75,969.41,674.3l48-27.73L902.18,580Z"/><polygon class="cls-5" points="650.04 568.93 633.23 588.34 834.94 704.8 834.94 704.8 834.94 617.45 700.47 539.82 650.04 568.93"/><path class="cls-2" d="M834.94,706a1.2,1.2,0,0,1-.6-.16L632.63,589.38a1.2,1.2,0,0,1-.31-1.82l16.81-19.41a1.19,1.19,0,0,1,.31-.25l50.43-29.11a1.2,1.2,0,0,1,1.2,0l134.47,77.64a1.2,1.2,0,0,1,.6,1V704.8a1.2,1.2,0,0,1-1.2,1.2ZM635.08,588l198.66,114.7V618.15L700.47,541.2l-49.65,28.67Z"/><polygon class="cls-5" points="885.37 646.57 834.94 617.45 834.94 617.45 834.94 704.8 902.18 665.98 885.37 646.57"/><path class="cls-2" d="M834.94,706a1.2,1.2,0,0,1-1.2-1.2V617.45a1.2,1.2,0,0,1,1.8-1L886,645.53a1.21,1.21,0,0,1,.31.25l16.81,19.41a1.2,1.2,0,0,1-.31,1.82l-67.24,38.82A1.2,1.2,0,0,1,834.94,706Zm1.2-86.47v83.19l64.18-37.06L884.6,647.5Z"/><polygon class="cls-5" points="834.94 675.68 885.37 646.57 700.47 539.82 650.04 568.93 834.94 675.68"/><path class="cls-2" d="M834.94,676.88a1.19,1.19,0,0,1-.6-.16L649.44,570a1.2,1.2,0,0,1,0-2.07l50.43-29.11a1.2,1.2,0,0,1,1.2,0L886,645.53a1.2,1.2,0,0,1,0,2.07l-50.43,29.11A1.2,1.2,0,0,1,834.94,676.88Zm-182.51-108L834.94,674.3l48-27.73L700.47,541.2Z"/><polygon class="cls-5" points="851.75 685.39 834.94 704.8 902.18 743.62 902.18 743.62 902.18 656.27 851.75 685.39"/><path class="cls-2" d="M902.18,744.81a1.2,1.2,0,0,1-.6-.16l-67.24-38.82A1.2,1.2,0,0,1,834,704l16.81-19.41a1.2,1.2,0,0,1,.31-.25l50.43-29.11a1.2,1.2,0,0,1,1.8,1v87.34a1.2,1.2,0,0,1-1.2,1.2ZM836.8,704.48,901,741.54V658.35l-48.46,28Z"/><polygon class="cls-5" points="952.61 685.39 902.18 656.27 902.18 656.27 902.18 743.62 969.41 704.8 952.61 685.39"/><path class="cls-2" d="M902.18,744.81a1.2,1.2,0,0,1-1.2-1.2V656.27a1.2,1.2,0,0,1,1.8-1l50.43,29.11a1.23,1.23,0,0,1,.31.25L970.32,704a1.2,1.2,0,0,1-.31,1.82l-67.24,38.82A1.2,1.2,0,0,1,902.18,744.81Zm1.2-86.47v83.19l64.19-37.06-15.73-18.16Z"/><polygon class="cls-5" points="902.18 714.5 952.61 685.39 902.18 656.27 851.75 685.39 902.18 714.5"/><path class="cls-2" d="M902.18,715.7a1.2,1.2,0,0,1-.6-.16l-50.43-29.11a1.2,1.2,0,0,1,0-2.07l50.43-29.11a1.2,1.2,0,0,1,1.2,0l50.43,29.11a1.2,1.2,0,0,1,0,2.07l-50.43,29.11A1.2,1.2,0,0,1,902.18,715.7Zm-48-30.31,48,27.73,48-27.73-48-27.73Z"/><path class="cls-6" d="M962.95,659.17l7,5a6.85,6.85,0,0,1-.55,11.52h0l-6.09,22.08-10.72-12.38L902.18,714.5l-8.77,23.63-34,19.63V816L10,1307.65l-.8-78.1,783-452.38V718.95l168.09-92.78Z"/><path class="cls-4" d="M741.21,563.33,789.15,591s18.46,17.91-10.63,16.73c-10.1-.41-13.06-8.94-18.09-9.7-9.47-1.45-5.24,12-19.21,8.53-3.83-.94-6.66,1.12-2.84,6.53,3,4.29,12.18,4.35,12.18,13.86l-10.29,23.17L665.56,607Z"/><path class="cls-2" d="M740.26,651.33a1.2,1.2,0,0,1-.6-.16L665,608a1.2,1.2,0,0,1,0-2.08l75.64-43.67a1.19,1.19,0,0,1,1.2,0L789.75,590a1.14,1.14,0,0,1,.24.18c.33.32,8,7.85,5.7,13.5-1.61,4-7.21,5.69-17.22,5.29-6.52-.26-10.26-3.68-13.26-6.42-1.79-1.63-3.33-3-5-3.29a7.83,7.83,0,0,0-1.18-.1c-2.44,0-3.42,1.33-5,3.67s-3.62,5.54-8.77,5.54h0a18.44,18.44,0,0,1-4.41-.6,6,6,0,0,0-1.41-.19c-.39,0-1.34.06-1.64.64s-.08,2,1.47,4.22c.88,1.25,2.54,2.16,4.28,3.13,3.62,2,8.12,4.48,8.12,11.42a1.19,1.19,0,0,1-.1.49l-10.29,23.17a1.2,1.2,0,0,1-1.09.71ZM668,607l71.74,41.42,9.64-21.72c-.1-5.33-3.39-7.15-6.88-9.07-2-1.1-3.88-2.14-5.08-3.84-2.44-3.45-2.24-5.55-1.64-6.7a4,4,0,0,1,3.77-1.94,8.36,8.36,0,0,1,2,.25,16.34,16.34,0,0,0,3.84.53c3.86,0,5.21-2.06,6.77-4.45,1.46-2.23,3.11-4.75,7-4.75a10.24,10.24,0,0,1,1.54.12c2.36.36,4.24,2.08,6.23,3.9,2.85,2.61,6.09,5.57,11.74,5.79,8.59.35,13.76-1,14.9-3.79,1.38-3.4-3.08-8.83-5-10.78l-47.21-27.26Z"/><path class="cls-4" d="M864.32,556.78a12.4,12.4,0,0,0,7.44,9.7c6.87,3,0,9.28,0,9.28l-54.64,30.81-43.65-24.9,11-12.75,50.43-29.11Z"/><path class="cls-2" d="M817.12,607.77a1.19,1.19,0,0,1-.59-.16l-43.65-24.9a1.2,1.2,0,0,1-.31-1.82l11-12.75a1.18,1.18,0,0,1,.31-.25l50.43-29.11a1.19,1.19,0,0,1,1.2,0l29.38,17a1.2,1.2,0,0,1,.6.94,11.11,11.11,0,0,0,6.72,8.7c2.17.94,3.42,2.3,3.71,4,.58,3.46-3,6.84-3.38,7.21a1.17,1.17,0,0,1-.22.16l-54.64,30.81A1.2,1.2,0,0,1,817.12,607.77Zm-41.79-26.41,41.79,23.84,53.92-30.41c.89-.86,2.84-3.17,2.54-5-.15-.9-.93-1.65-2.3-2.25a13.55,13.55,0,0,1-8.07-10.06L834.94,541.2l-49.65,28.67Z"/><path class="cls-6" d="M699.25,665.07l33.82-19.29,8.4-24.26,17.21-9.94h0a32.44,32.44,0,0,0,33,.34l9-5.18a5.23,5.23,0,0,0-.1-9.11h0V578.23h0a61.18,61.18,0,0,0,31.26-8.59l17.46-10.38A6.67,6.67,0,0,0,851,549.11h0l-67.24-38.82L632.21,625.36v59.23L17.33,1040.85l.54,76.71L698.65,723Z"/><path class="cls-4" d="M1097.53,630.83l.12.07Z"/><path class="cls-2" d="M1097.57,632.06a1.14,1.14,0,0,1-.54-.14h0l0,0,0,0,0,0h0a1.2,1.2,0,0,1,1.25-2h0l0,0h0a1.23,1.23,0,0,1,.37,1.62A1.2,1.2,0,0,1,1097.57,632.06Z"/><path class="cls-4" d="M1117.94,673.21c-5-4.61-6.87-16.24-20.41-23.11-8.32-4.23-6.41-10.55-3.7-14.78l3.7-4.49c-4.83-2.89-16.48,6.67-18.86-1.57s-.45-16.39-4.12-14.27-7.59-3.25-16.81.53-21.71-.34-12.69-5.84,25-2.41,22.6-10-15.81-3.44-22.6-11.36-20-3-20-3l-38.8,22.4,7.08,23.5,26.54,15.32,16.6,19.17L902.18,742.46,877,729.06s-3,1.69,1.79,7.32,10.77.78,16.5,7.23,14.89,5.92,19.25,0,25.2-17.91,38.11-17.95,5.42,4.62,20.24,11.95,13.59-1.83,28.25-3.21,19.93-6.41,16.27-12.68-.69-11.84,17.87-20.77,22.68,5,49.72,6.3S1123,677.82,1117.94,673.21Z"/><path class="cls-2" d="M905.16,749.46a14.38,14.38,0,0,1-10.8-5c-2.65-3-5.29-3.26-8.1-3.56s-5.78-.6-8.41-3.69c-2.29-2.69-3.29-5-2.95-6.88a3.27,3.27,0,0,1,1.49-2.27,1.2,1.2,0,0,1,1.15,0l24.63,13.09,132.43-75.67-15.51-17.91-26.36-15.22a1.19,1.19,0,0,1-.55-.69l-7.08-23.5a1.2,1.2,0,0,1,.55-1.38l38.8-22.4.18-.08a29.39,29.39,0,0,1,9.27-1.59c5.22,0,9.28,1.66,12.08,4.93,3.06,3.57,7.61,4.49,12,5.37,4.82,1,9.38,1.88,10.82,6.41a4.54,4.54,0,0,1-.28,3.89c-1.49,2.43-5.34,3-10.21,3.83-4.25.69-9.07,1.46-12.62,3.63-2.09,1.27-2.67,2.31-2.52,2.85.3,1.07,3,2.24,6.91,2.24a19.48,19.48,0,0,0,7.21-1.37,18.17,18.17,0,0,1,7-1.48,21.18,21.18,0,0,1,5.55.86c1.78.46,3.11.76,4.14.16a3.23,3.23,0,0,1,1.61-.5c2.36,0,2.59,2.87,2.88,6.49a44.73,44.73,0,0,0,1.38,9,3.08,3.08,0,0,0,3.39,2.57,23,23,0,0,0,5.73-1.18,24,24,0,0,1,6.21-1.25,5.68,5.68,0,0,1,3,.74,1.2,1.2,0,0,1,.31,1.79l-3.65,4.44c-1.28,2-2.62,5-1.87,7.69.57,2.09,2.3,3.88,5.14,5.32,9.34,4.74,13.24,11.58,16.38,17.06,1.48,2.58,2.75,4.82,4.29,6.23,2.18,2,2.08,7.16-.25,13.17-4.12,10.62-15,23-31.93,23h0c-.55,0-1.11,0-1.67,0-11.87-.56-19.48-3.55-25.6-6-4.69-1.85-8.39-3.31-12.69-3.31a24.72,24.72,0,0,0-10.85,2.85c-11.31,5.44-17.13,9.8-18.32,13.71a6.5,6.5,0,0,0,1,5.38c1.88,3.2,1.35,5.66.59,7.15-2,3.89-8.14,6.42-17.78,7.32a27.39,27.39,0,0,0-11.42,3.63c-2.34,1.23-4.55,2.4-7.58,2.4-2.71,0-5.85-.93-9.9-2.94-7.06-3.49-9.26-6.43-10.86-8.57s-2.44-3.26-8.69-3.26h-.15c-12.58,0-33.16,12-37.15,17.46A12.63,12.63,0,0,1,905.16,749.46Zm-27.88-18.87a1.82,1.82,0,0,0,0,.2c-.08.64.12,2.13,2.42,4.83,2,2.36,4.25,2.6,6.84,2.87,3,.31,6.37.67,9.64,4.35a12,12,0,0,0,9,4.24,10.25,10.25,0,0,0,8.37-4.15c4.33-5.89,25.6-18.39,39.07-18.43h.16c7.11,0,8.53,1.45,10.61,4.22,1.46,1.95,3.46,4.62,10,7.86,3.71,1.83,6.51,2.69,8.84,2.69s4.21-.94,6.46-2.12a29.83,29.83,0,0,1,12.31-3.89c11.68-1.1,15-4.25,15.87-6,.72-1.4.54-3-.52-4.85a8.83,8.83,0,0,1-1.19-7.29c1.42-4.66,7.46-9.33,19.57-15.17a27,27,0,0,1,11.89-3.09c4.76,0,8.84,1.61,13.57,3.47,5.95,2.34,13.36,5.26,24.83,5.8.52,0,1,0,1.56,0h0c15.75,0,25.84-11.57,29.69-21.48,2.11-5.43,2-9.48.87-10.53-1.82-1.66-3.18-4-4.76-6.81-3-5.21-6.68-11.7-15.38-16.12-3.47-1.76-5.62-4.06-6.37-6.82s0-6.15,2.2-9.67l.08-.12,2.54-3.09a20.55,20.55,0,0,0-5.84,1.14,24.53,24.53,0,0,1-6.4,1.28,5.43,5.43,0,0,1-5.69-4.3,46.76,46.76,0,0,1-1.47-9.46,17.92,17.92,0,0,0-.61-4.25,2,2,0,0,0-.3.15,5,5,0,0,1-2.58.67,13.68,13.68,0,0,1-3.36-.59,18.88,18.88,0,0,0-4.95-.79,15.84,15.84,0,0,0-6.06,1.3,21.71,21.71,0,0,1-8.12,1.55c-3.74,0-8.4-1-9.22-4-.37-1.31,0-3.33,3.58-5.54,4-2.41,9-3.23,13.49-3.95,3.92-.63,7.63-1.23,8.55-2.72a2.1,2.1,0,0,0,0-1.91c-1-3-4-3.79-9-4.79-4.58-.92-9.76-2-13.36-6.16-2.33-2.71-5.78-4.09-10.26-4.09a27.54,27.54,0,0,0-8.35,1.41l-37.89,21.87,6.67,22.13,26.13,15.08a1.2,1.2,0,0,1,.31.25l16.6,19.17a1.2,1.2,0,0,1-.31,1.82L902.77,743.5a1.2,1.2,0,0,1-1.16,0Z"/><polygon class="cls-4" points="997.28 617.45 799.29 521.23 799.29 311.75 997.28 311.75 997.28 617.45"/><path class="cls-4" d="M994.36,215.94a147.14,147.14,0,0,1,23.73,17.27,5,5,0,0,0,8.09-2.07h0a5,5,0,0,0-1.23-5.27c-9-8.73-20-16.23-27.58-21a5.56,5.56,0,0,0-8.48,5h0a5.55,5.55,0,0,0,2.9,4.61Q993.07,215.2,994.36,215.94Z"/><path class="cls-2" d="M1021.44,235.68h0a6.25,6.25,0,0,1-4.14-1.58A146.09,146.09,0,0,0,993.76,217q-1.28-.74-2.54-1.42A6.76,6.76,0,0,1,989.53,205a6.84,6.84,0,0,1,4.92-2.12,6.72,6.72,0,0,1,3.55,1c7.64,4.76,18.67,12.29,27.78,21.12a6.22,6.22,0,0,1-4.35,10.68Zm-27-30.44a4.43,4.43,0,0,0-3.19,1.38,4.37,4.37,0,0,0,1.1,6.83q1.29.7,2.6,1.46a148.43,148.43,0,0,1,23.93,17.41,3.83,3.83,0,0,0,5.23-5.59c-9-8.69-19.83-16.11-27.38-20.81A4.27,4.27,0,0,0,994.45,205.24Z"/><path class="cls-4" d="M1093.77,390.41a6.23,6.23,0,0,0-9.68,3.89q-.72,3.59-1.71,6.92a64,64,0,0,1-6.29,14.65,6.61,6.61,0,0,1-11,.54h0a6.55,6.55,0,0,1-.13-7.69,52.55,52.55,0,0,0,6.51-12.6,5.71,5.71,0,0,0-1.5-6.18h0a5.66,5.66,0,0,0-8.94,1.76A42.24,42.24,0,0,1,1054.4,402a34.72,34.72,0,0,1-17,10.62,6.37,6.37,0,0,0-4.31,8.43h0a6.33,6.33,0,0,0,7.14,3.94,41.16,41.16,0,0,0,5.34-1.47,7,7,0,0,1,8.34,3.18h0a7,7,0,0,1-4.06,10.13l-1.23.35a7.79,7.79,0,0,0-5.26,10.33h0a7.77,7.77,0,0,0,8.76,4.83,50.6,50.6,0,0,0,13.58-4.78,49.87,49.87,0,0,0,14.22-11.2c5.86-6.61,10.42-15.06,13.41-25.18a95.85,95.85,0,0,0,3.09-14.86,6.23,6.23,0,0,0-2.63-5.89Z"/><path class="cls-2" d="M1050.59,453.67A9,9,0,0,1,1048.3,436l1.2-.34a5.72,5.72,0,0,0,3.69-3.36,5.81,5.81,0,0,0-5.36-8,5.63,5.63,0,0,0-1.87.32,42.64,42.64,0,0,1-5.49,1.52,7.4,7.4,0,0,1-1.49.15,7.54,7.54,0,0,1-6.71-10.91,7.67,7.67,0,0,1,4.82-3.93,33.49,33.49,0,0,0,16.41-10.25,41.16,41.16,0,0,0,6.46-10,6.76,6.76,0,0,1,6.2-3.94,6.88,6.88,0,0,1,6.45,9.27,53.82,53.82,0,0,1-6.67,12.89,5.41,5.41,0,1,0,9.11,5.84,63,63,0,0,0,6.17-14.37c.65-2.18,1.21-4.48,1.68-6.82a7.47,7.47,0,0,1,7.3-6,7.45,7.45,0,0,1,7.36,8.37,97.39,97.39,0,0,1-3.13,15c-3,10.17-7.6,18.79-13.66,25.63a51.11,51.11,0,0,1-14.56,11.46,51.91,51.91,0,0,1-13.89,4.89A8.94,8.94,0,0,1,1050.59,453.67Zm-2.75-31.75a8.21,8.21,0,0,1,7.58,11.28,8.11,8.11,0,0,1-5.23,4.76l-1.27.36a6.59,6.59,0,0,0,1.67,13,6.46,6.46,0,0,0,1.28-.13,49.5,49.5,0,0,0,13.25-4.66A48.74,48.74,0,0,0,1079,435.55c5.82-6.58,10.25-14.89,13.16-24.72a95.12,95.12,0,0,0,3-14.68,5.05,5.05,0,0,0-5-5.67,5.07,5.07,0,0,0-5,4.05c-.49,2.41-1.07,4.77-1.74,7a65.41,65.41,0,0,1-6.41,14.92A7.81,7.81,0,1,1,1064,408a51.47,51.47,0,0,0,6.37-12.32,4.49,4.49,0,0,0-4.2-6.05,4.39,4.39,0,0,0-4,2.55,43.54,43.54,0,0,1-6.83,10.58,35.9,35.9,0,0,1-17.57,11,5.27,5.27,0,0,0-3.31,2.7,5,5,0,0,0-.2,4.14,5.17,5.17,0,0,0,4.77,3.3,5,5,0,0,0,1-.1,39.87,39.87,0,0,0,5.18-1.43A8,8,0,0,1,1047.84,421.91Z"/><path class="cls-4" d="M1054.23,309.12a11.17,11.17,0,0,0,11.05,6.65h0l.3,0a11.15,11.15,0,0,1,11.4,7.52,172.22,172.22,0,0,1,8.22,36.36,5.27,5.27,0,0,0,3.06,4.21h0a5.3,5.3,0,0,0,7.43-5.6,204.59,204.59,0,0,0-11.77-43.87,242.94,242.94,0,0,0-10.64-23.68,8.72,8.72,0,0,0-11.7-3.78l-.66.34h0a8.71,8.71,0,0,1-11.38-3.23,186.1,186.1,0,0,0-29.12-36.6,135.69,135.69,0,0,0-26.06-19.93q-2.38-1.38-4.73-2.57-2-1-4-2a5,5,0,0,0-6.91,5.35h0a5,5,0,0,0,3.16,3.82,80.91,80.91,0,0,1,8.33,3.71c1.39.71,2.79,1.47,4.2,2.28a120.23,120.23,0,0,1,23.1,17.66,167.38,167.38,0,0,1,29.42,38.6C1049.57,299.2,1052,304.13,1054.23,309.12Z"/><path class="cls-2" d="M1090.46,365.53a6.51,6.51,0,0,1-6.45-5.77,170.85,170.85,0,0,0-8.16-36.11,10,10,0,0,0-10.18-6.71l-.3,0c-.31,0-.62,0-.93,0h0a12.38,12.38,0,0,1-11.31-7.39c-2.18-4.94-4.63-9.86-7.3-14.63a166.76,166.76,0,0,0-29.2-38.33,119,119,0,0,0-22.87-17.49c-1.33-.77-2.72-1.52-4.14-2.25a80,80,0,0,0-8.21-3.65,6.2,6.2,0,0,1-3.92-4.74,6.15,6.15,0,0,1,8.59-6.64c1.36.62,2.74,1.28,4.1,2,1.63.83,3.24,1.71,4.78,2.6a136.76,136.76,0,0,1,26.29,20.1,186.15,186.15,0,0,1,29.31,36.84,7.51,7.51,0,0,0,9.81,2.79l.66-.34a9.91,9.91,0,0,1,13.31,4.3A245.3,245.3,0,0,1,1085,313.94a205.44,205.44,0,0,1,11.84,44.13,6.41,6.41,0,0,1-1.5,5.19A6.5,6.5,0,0,1,1090.46,365.53Zm-24-51a12.32,12.32,0,0,1,11.7,8.37,173.17,173.17,0,0,1,8.27,36.62,4.09,4.09,0,0,0,7.17,2.19,4,4,0,0,0,.95-3.28,203,203,0,0,0-11.7-43.61,242.48,242.48,0,0,0-10.59-23.56,7.52,7.52,0,0,0-10.09-3.26l-.66.34a9.9,9.9,0,0,1-12.94-3.67,183.68,183.68,0,0,0-28.93-36.37,134.36,134.36,0,0,0-25.83-19.75c-1.51-.87-3.08-1.73-4.68-2.54-1.33-.68-2.68-1.33-4-1.93a3.75,3.75,0,0,0-4.41,1,3.69,3.69,0,0,0-.83,3,3.79,3.79,0,0,0,2.4,2.9,82.69,82.69,0,0,1,8.46,3.76c1.45.75,2.88,1.52,4.25,2.31a121.35,121.35,0,0,1,23.33,17.84,169.16,169.16,0,0,1,29.63,38.88c2.7,4.84,5.19,9.83,7.4,14.83a10,10,0,0,0,9.87,5.94l.3,0C1065.8,314.53,1066.11,314.52,1066.42,314.52Z"/><path class="cls-4" d="M924.72,232.13q-.51.66-1,1.35a6.63,6.63,0,0,1-10.28.77h0c-2-2.12-1.57-4.49-.1-7q.37-.62.75-1.23c1.62-2.59,2.2-5.12.32-7.52h0c-3.31-4.23-9.34-2.4-12.31,1.24s-7.6,11.77-8.25,17.37-1.28,14.31-1.28,14.31l11.11,6.67h0a6.3,6.3,0,0,1,10.3-4.16l.79.66h0a8,8,0,0,0,12.4-3q.39-.9.8-1.76a43.24,43.24,0,0,1,4.65-7.61A35,35,0,0,1,953.86,229a6.22,6.22,0,0,0,4.57-8.21h0a6.29,6.29,0,0,0-6.75-4.08A39.59,39.59,0,0,0,924.72,232.13Z"/><path class="cls-2" d="M903.68,259.3a1.2,1.2,0,0,1-.62-.17L892,252.46a1.2,1.2,0,0,1-.58-1.11c0-.09.64-8.79,1.28-14.36.69-6,5.49-14.29,8.51-18a11.17,11.17,0,0,1,8.23-4.12,7.32,7.32,0,0,1,5.95,2.9c2,2.54,1.91,5.45-.25,8.9q-.37.59-.73,1.2c-1.42,2.41-1.44,4.07-.05,5.56a5.29,5.29,0,0,0,3.91,1.71,5.56,5.56,0,0,0,4.52-2.35q.51-.71,1-1.39a40.9,40.9,0,0,1,27.76-15.92,7.79,7.79,0,0,1,1-.06A7.46,7.46,0,0,1,959,226.56a7.32,7.32,0,0,1-4.93,3.58A33.54,33.54,0,0,0,933.58,243a42.16,42.16,0,0,0-4.52,7.4q-.41.84-.79,1.72a9.21,9.21,0,0,1-8.45,5.56,9,9,0,0,1-5.82-2.12l-.79-.66a5,5,0,0,0-3.24-1.19,5.12,5.12,0,0,0-5.1,4.56,1.2,1.2,0,0,1-1.19,1.07Zm-9.86-8.51,9.07,5.44a7.51,7.51,0,0,1,7.08-5,7.37,7.37,0,0,1,4.78,1.75l.79.66a6.62,6.62,0,0,0,4.29,1.57,6.82,6.82,0,0,0,6.25-4.12q.4-.92.83-1.8a44.56,44.56,0,0,1,4.78-7.82,36.34,36.34,0,0,1,21.95-13.71,4.92,4.92,0,0,0,3.32-2.41,5.07,5.07,0,0,0-5.11-7.52,38.55,38.55,0,0,0-26.17,15q-.5.65-1,1.32a8,8,0,0,1-6.47,3.36,7.67,7.67,0,0,1-5.66-2.47c-2.12-2.28-2.21-5.11-.26-8.41q.38-.64.76-1.26c1.62-2.59,1.74-4.43.39-6.15a4.94,4.94,0,0,0-4.06-2,8.68,8.68,0,0,0-6.38,3.24c-3,3.62-7.37,11.45-8,16.75C894.51,241.84,894,248.57,893.82,250.78Z"/><path class="cls-7" d="M994.36,250.62c-22.44-13-42.08-10.48-52.79,4a16,16,0,0,1-23.92,2.18,57.3,57.3,0,0,0-95.3,27.73,70.22,70.22,0,1,0,22.7,125.29,55.37,55.37,0,0,0,107.46,10.52,33.4,33.4,0,0,0,49.63-.65,76.09,76.09,0,0,1,31.11-21.59c13.74-5,22.51-19.55,22.51-41.53C1055.77,317.63,1028.28,270.2,994.36,250.62Z"/><path class="cls-4" d="M612.14,521.39s.19-5,5-11.1-21.76-19.76-43.18-3.49S544.26,530.71,555.25,535s9.63,13.72,9.63,13.72Z"/><path class="cls-2" d="M564.88,549.88a1.2,1.2,0,0,1-1.19-1.37c0-.37,1-8.6-8.87-12.43-3.44-1.33-5.27-3.07-5.58-5.31-.73-5.2,6.8-11.89,24-24.92a38.41,38.41,0,0,1,23.4-7.94c8.41,0,19.13,3.35,21.78,8.77a4,4,0,0,1-.32,4.35c-4.46,5.71-4.72,10.37-4.72,10.41a1.21,1.21,0,0,1-.6,1l-47.26,27.29A1.2,1.2,0,0,1,564.88,549.88ZM596.6,500.3a36,36,0,0,0-21.95,7.45c-13,9.84-23.65,18.34-23,22.68.18,1.31,1.52,2.42,4.08,3.41,6.1,2.36,8.61,6.29,9.63,9.17a14.11,14.11,0,0,1,.77,3.58L611,520.66a23.92,23.92,0,0,1,5.16-11.11,1.56,1.56,0,0,0,.06-1.83C614.7,504.62,607,500.3,596.6,500.3Z"/><path class="cls-8" d="M696.69,795.41a8,8,0,0,0,3.67-4.05l-8.51,4.92A10.24,10.24,0,0,0,696.69,795.41Z"/><path class="cls-2" d="M692.48,797.49h0l-.69,0a1.2,1.2,0,0,1-.54-2.23l8.51-4.92a1.2,1.2,0,0,1,1.68,1.55,9.26,9.26,0,0,1-4.26,4.63A11.28,11.28,0,0,1,692.48,797.49Z"/><path class="cls-8" d="M671.87,780.12c-4.41-8.5-4.13-17-8.72-31.61a40.3,40.3,0,0,1-13.89-8.42c-9.93-9.35-8.56-23.48-6.53-31.92L10,1074.73l-.8,116.92,295.5-171.86L691.85,796.28C684.69,795.89,676.5,789.05,671.87,780.12Z"/><path class="cls-2" d="M9.2,1192.85a1.2,1.2,0,0,1-1.2-1.21l.8-116.92a1.19,1.19,0,0,1,.6-1L642.14,707.14a1.2,1.2,0,0,1,1.77,1.32c-1.83,7.59-3.46,21.68,6.18,30.77a39.08,39.08,0,0,0,13.49,8.17,1.2,1.2,0,0,1,.72.76,155.93,155.93,0,0,1,4,16.2c1.22,5.9,2.18,10.56,4.6,15.22,4.55,8.78,12.35,15.16,19,15.51a1.2,1.2,0,0,1,.54,2.23L305.3,1020.83,9.8,1192.69A1.21,1.21,0,0,1,9.2,1192.85Zm2-117.42-.78,114.14L304.1,1018.76,688.41,796.88c-6.54-1.91-13.41-8.12-17.6-16.21-2.57-5-3.61-10-4.82-15.83a156.33,156.33,0,0,0-3.81-15.41A41.06,41.06,0,0,1,648.45,741c-9.46-8.91-9-22-7.45-30.4Z"/><path class="cls-8" d="M693.94,764c-8.21-10.74-19.57-11.23-30.79-15.46,4.58,14.6,4.31,23.11,8.72,31.61,4.63,8.93,12.82,15.77,20,16.16l8.51-4.92C703,785.76,702.74,775.47,693.94,764Z"/><path class="cls-2" d="M691.85,797.48h-.06c-7.43-.4-16.05-7.31-21-16.8-2.57-5-3.61-10-4.82-15.83a154.09,154.09,0,0,0-4-16,1.2,1.2,0,0,1,1.57-1.48c2.79,1.05,5.65,1.89,8.4,2.69,8.5,2.48,16.54,4.82,22.91,13.16,9.14,12,9.38,22.63,6.55,28.63a1.2,1.2,0,0,1-.49.53l-8.51,4.92A1.2,1.2,0,0,1,691.85,797.48Zm-26.85-47c1.58,5.37,2.51,9.88,3.34,13.91,1.22,5.9,2.18,10.56,4.6,15.22,4.47,8.63,12.08,14.94,18.63,15.49l7.87-4.54c3.57-8.16-1.2-19-6.44-25.82-5.9-7.71-13.57-10-21.68-12.32C669.24,751.78,667.12,751.16,665,750.44Z"/><path class="cls-8" d="M876.22,572.06l-.64-.32a33.61,33.61,0,0,0-31.83,1l-1.15.67a33.62,33.62,0,0,0-16.81,29.11h0"/><path class="cls-2" d="M825.79,603.69a1.2,1.2,0,0,1-1.2-1.2A34.91,34.91,0,0,1,842,572.34l1.15-.67a34.72,34.72,0,0,1,33-1l.64.32a1.2,1.2,0,0,1-1.07,2.14l-.64-.32a32.34,32.34,0,0,0-30.7.93l-1.15.67A32.5,32.5,0,0,0,827,602.49,1.2,1.2,0,0,1,825.79,603.69Z"/><path class="cls-8" d="M897.32,561.19l-254.58,147c-2,8.44-3.4,22.57,6.53,31.92a40.3,40.3,0,0,0,13.89,8.42l-.07-.22.07.22c11.22,4.23,22.57,4.71,30.79,15.46,8.8,11.5,9.06,21.79,6.42,27.39L958.24,642.47a18.83,18.83,0,0,0,9.42-16.31l11-13.07Z"/><path class="cls-2" d="M700.36,792.56a1.2,1.2,0,0,1-1.08-1.71c3.86-8.19-1-19.21-6.29-26.15-5.9-7.71-13.57-10-21.68-12.32-2.8-.82-5.69-1.66-8.57-2.74h0A41.4,41.4,0,0,1,648.45,741c-4.52-4.26-11.42-14.21-6.87-33.07a1.19,1.19,0,0,1,.57-.76l254.58-147a1.19,1.19,0,0,1,1.24,0l81.33,51.91a1.2,1.2,0,0,1,.27,1.78l-10.71,12.74a20.08,20.08,0,0,1-10,16.9L701,792.4A1.19,1.19,0,0,1,700.36,792.56Zm-36.32-45c2.65,1,5.33,1.76,7.94,2.52,8.5,2.48,16.54,4.82,22.91,13.16,7.71,10.09,9.09,19.26,7.63,25.49L957.64,641.44a17.68,17.68,0,0,0,8.82-15.27,1.2,1.2,0,0,1,.28-.77l10.11-12-79.56-50.78L643.78,709c-1.78,7.7-3.13,21.38,6.3,30.27a38.61,38.61,0,0,0,12.77,7.9A1.2,1.2,0,0,1,664,747.56Z"/><path class="cls-8" d="M967.66,591V562.5a24.21,24.21,0,0,0-12.1-21h0a24.2,24.2,0,0,0-24.2,0l-175,101"/><path class="cls-2" d="M756.38,643.76a1.2,1.2,0,0,1-.6-2.23l175-101a25.4,25.4,0,0,1,38.1,22V591a1.2,1.2,0,0,1-2.4,0V562.5A23,23,0,0,0,932,542.58l-175,101A1.19,1.19,0,0,1,756.38,643.76Z"/><path class="cls-8" d="M918.24,578.23l.5-.29a32.6,32.6,0,0,1,32.61,0h0a32.61,32.61,0,0,1,16.3,28.24v6.93"/><path class="cls-2" d="M967.66,614.3a1.2,1.2,0,0,1-1.2-1.2v-6.93A31.41,31.41,0,0,0,919.34,579l-.5.29a1.2,1.2,0,0,1-1.2-2.07l.5-.29a33.81,33.81,0,0,1,50.71,29.28v6.93A1.2,1.2,0,0,1,967.66,614.3Z"/><line class="cls-8" x1="947.03" y1="575.76" x2="947.03" y2="568.37"/><path class="cls-2" d="M947,577a1.2,1.2,0,0,1-1.2-1.2v-7.39a1.2,1.2,0,1,1,2.4,0v7.39A1.2,1.2,0,0,1,947,577Z"/><path class="cls-8" d="M934.86,656l2.91,1.68a28.05,28.05,0,0,0,28.15-.06l14.49-8.44a27.15,27.15,0,0,0,13.48-23.46v-7.55a27.14,27.14,0,0,0-13.57-23.51h0a27.15,27.15,0,0,0-25.72-.77l-4.95,2.48"/><path class="cls-2" d="M951.79,662.61a29.23,29.23,0,0,1-14.62-3.91L934.26,657a1.2,1.2,0,0,1,1.2-2.08l2.91,1.68a26.91,26.91,0,0,0,26.95-.05l14.49-8.44a26,26,0,0,0,12.88-22.42v-7.55A25.95,25.95,0,0,0,955.13,595l-4.95,2.48a1.2,1.2,0,0,1-1.07-2.14l4.95-2.48a28.35,28.35,0,0,1,41,25.35v7.55A28.44,28.44,0,0,1,981,650.2l-14.49,8.44A29.24,29.24,0,0,1,951.79,662.61Z"/><path class="cls-8" d="M958.24,642.47a18.83,18.83,0,0,0,9.42-16.31"/><path class="cls-2" d="M958.24,643.67a1.2,1.2,0,0,1-.6-2.23,17.68,17.68,0,0,0,8.82-15.27,1.2,1.2,0,0,1,2.4,0,20.08,20.08,0,0,1-10,17.34A1.19,1.19,0,0,1,958.24,643.67Z"/><path class="cls-4" d="M875.58,571.75a33.61,33.61,0,0,0-31.83,1l-1.15.67a33.62,33.62,0,0,0-16.81,29.11l50.43-30.42Z"/><path class="cls-4" d="M980.31,594.65h0A27.14,27.14,0,0,0,967.59,591h.06V562.5a24.2,24.2,0,0,0-36.31-21l-175,101h0L642.74,708.17c-2,8.44-3.4,22.57,6.53,31.92a40.3,40.3,0,0,0,13.89,8.42c11.21,4.23,22.57,4.71,30.79,15.46,8.8,11.5,9.06,21.79,6.42,27.39L934.86,656h0l2.91,1.68a28.05,28.05,0,0,0,28.15-.06l14.49-8.44a27.15,27.15,0,0,0,13.48-23.46v-7.55A27.14,27.14,0,0,0,980.31,594.65Z"/><line class="cls-8" x1="304.7" y1="1019.79" x2="958.24" y2="642.47"/><path class="cls-2" d="M304.7,1021a1.2,1.2,0,0,1-.6-2.23L957.64,641.44a1.2,1.2,0,1,1,1.2,2.07L305.3,1020.83A1.19,1.19,0,0,1,304.7,1021Z"/><path class="cls-8" d="M792.57,504.56h0a16.81,16.81,0,0,0-25.21,14.56v9.7L767,499.71v-9.94A33.37,33.37,0,0,0,717,460.87L467.46,604.93h0C472,602.28,480,604,486.32,615.2c6.68,11.86-6,32.21,8.1,47.57,7.9,8.59,22.53,10.73,27.19,14.22,5.07,3.8,4.91,9.71,1,12.53L750.55,557.94h0a33.62,33.62,0,0,0,33.62,0h0A33.62,33.62,0,0,0,801,528.83v-9.7A16.81,16.81,0,0,0,792.57,504.56Z"/><path class="cls-2" d="M522.64,690.72a1.2,1.2,0,0,1-.71-2.17,5.63,5.63,0,0,0,2.36-4.55,7.7,7.7,0,0,0-3.4-6.06c-1.53-1.15-4.44-2.21-7.8-3.44-6.37-2.32-14.29-5.21-19.55-10.93-8.64-9.39-7.66-20.52-6.8-30.35.58-6.61,1.13-12.86-1.46-17.45-3.85-6.83-8.8-10.76-13.6-10.76a7.26,7.26,0,0,0-3.62.93h0a1.2,1.2,0,0,1-1.2-2.08L716.37,459.83a34.57,34.57,0,0,1,51.85,29.94v9.94l.12,10.83a18,18,0,0,1,33.83,8.58v9.7a34.82,34.82,0,0,1-51.62,30.49L523.24,690.56A1.19,1.19,0,0,1,522.64,690.72Zm-49.09-87.93c5.05.84,10,5,13.82,11.82,2.95,5.23,2.37,11.84,1.76,18.83-.86,9.79-1.74,19.9,6.18,28.52,4.87,5.29,12.49,8.07,18.61,10.3,3.54,1.29,6.6,2.41,8.42,3.77a10.05,10.05,0,0,1,4.36,8,8.11,8.11,0,0,1-.24,1.92l223.5-129a1.2,1.2,0,0,1,1.2,0,32.42,32.42,0,0,0,48.63-28.08v-9.7a15.61,15.61,0,1,0-31.22,0v9.7a1.2,1.2,0,0,1-2.4,0l-.33-29.12v-10a32.17,32.17,0,0,0-48.26-27.86Z"/><path class="cls-8" d="M731.16,469.14h0a33.62,33.62,0,0,1,33.62,0h0a33.62,33.62,0,0,1,16.81,29.11v2.6"/><path class="cls-2" d="M781.59,502.05a1.2,1.2,0,0,1-1.2-1.2v-2.6a32.42,32.42,0,0,0-48.63-28.08,1.2,1.2,0,0,1-1.2-2.07,34.82,34.82,0,0,1,52.22,30.15v2.6A1.2,1.2,0,0,1,781.59,502.05Z"/><path class="cls-8" d="M750.55,480.11l37.82-21.84a25.21,25.21,0,0,1,25.21,0h0a25.21,25.21,0,0,1,12.61,21.84v48.52l5.92,6.83a10.2,10.2,0,0,1,2.49,6.68h0a10.2,10.2,0,0,1-5.12,8.84l-7.84,4.5a24.22,24.22,0,0,1-24.29-.1l-13.1-7.66L779.72,544"/><path class="cls-2" d="M809.57,559.89a25.41,25.41,0,0,1-12.83-3.47l-13.1-7.66-.15-.1L779,545a1.2,1.2,0,0,1,1.51-1.86l4.46,3.62,13,7.62a23.07,23.07,0,0,0,23.09.09l7.84-4.5a9,9,0,0,0,2.32-13.69l-5.92-6.83a1.2,1.2,0,0,1-.29-.78V480.11a24,24,0,0,0-36-20.8l-37.82,21.84a1.2,1.2,0,1,1-1.2-2.07l37.82-21.84a26.41,26.41,0,0,1,39.62,22.87v48.08l5.63,6.49A11.39,11.39,0,0,1,830.07,552l-7.84,4.5A25.4,25.4,0,0,1,809.57,559.89Z"/><path class="cls-8" d="M522.64,689.52,750.55,557.94h0a33.62,33.62,0,0,0,33.62,0h0A33.62,33.62,0,0,0,801,528.83v-9.7a16.81,16.81,0,0,0-8.4-14.56h0a16.81,16.81,0,0,0-16.81,0h0a16.81,16.81,0,0,0-8.4,14.56v9.7"/><path class="cls-2" d="M522.64,690.72a1.2,1.2,0,0,1-.6-2.24L749.95,556.9a1.2,1.2,0,0,1,1.2,0,32.42,32.42,0,0,0,48.63-28.08v-9.7a15.61,15.61,0,1,0-31.22,0v9.7a1.2,1.2,0,0,1-2.4,0v-9.7a18,18,0,0,1,36,0v9.7a34.82,34.82,0,0,1-51.62,30.49L523.24,690.56A1.19,1.19,0,0,1,522.64,690.72Z"/><path class="cls-9" d="M832.11,535.47l-5.92-6.83V480.11a25.21,25.21,0,0,0-12.61-21.84h0a25.21,25.21,0,0,0-25.21,0L767,470.58c-.74-.51-1.49-1-2.27-1.45h0a33.55,33.55,0,0,0-7.87-3.29,33.28,33.28,0,0,0-39.93-5L467.46,604.93C472,602.28,480,604,486.32,615.2c6.68,11.86-6,32.21,8.1,47.57,7.9,8.59,22.53,10.73,27.19,14.22,5.07,3.8,4.91,9.71,1,12.53h0l133.83-77.27,94.07-54.31a33.57,33.57,0,0,0,6.07,2.74q1,.35,2.1.63a33.65,33.65,0,0,0,15.13.49q1.07-.21,2.13-.49a33.63,33.63,0,0,0,8.18-3.38h0a33.57,33.57,0,0,0,7.48-5.89l5.71,3.34a24.22,24.22,0,0,0,24.29.1l7.84-4.5a10.2,10.2,0,0,0,2.63-15.52Zm-64.89-18.82.26.56a16.85,16.85,0,0,0-.12,1.91v9.7Z"/><line class="cls-8" x1="796.44" y1="506.8" x2="796.44" y2="498.09"/><path class="cls-2" d="M796.44,508a1.2,1.2,0,0,1-1.2-1.2v-8.71a1.2,1.2,0,1,1,2.4,0v8.71A1.2,1.2,0,0,1,796.44,508Z"/><path class="cls-8" d="M521.61,677c-4.66-3.5-19.29-5.63-27.19-14.22-14.13-15.36-1.42-35.71-8.1-47.57C480,604,472,602.28,467.46,604.93h0L1.2,875.37V991.83L522.64,689.52C526.52,686.71,526.68,680.79,521.61,677Z"/><path class="cls-2" d="M1.2,993a1.2,1.2,0,0,1-1.2-1.2V875.37a1.2,1.2,0,0,1,.6-1L466.85,603.89a9.66,9.66,0,0,1,4.83-1.25c5.68,0,11.4,4.37,15.68,12,2.95,5.23,2.37,11.84,1.76,18.83-.86,9.79-1.74,19.9,6.18,28.52,4.87,5.29,12.49,8.07,18.61,10.3,3.54,1.29,6.6,2.41,8.42,3.77a10.05,10.05,0,0,1,4.36,8,8,8,0,0,1-3.34,6.47l-.1.07L1.8,992.87A1.19,1.19,0,0,1,1.2,993Zm1.2-117V989.75L522,688.52a5.63,5.63,0,0,0,2.31-4.51,7.7,7.7,0,0,0-3.4-6.06c-1.53-1.15-4.44-2.21-7.8-3.44-6.37-2.32-14.29-5.21-19.55-10.93-8.64-9.39-7.66-20.52-6.8-30.35.58-6.61,1.13-12.86-1.46-17.45-3.85-6.83-8.8-10.76-13.6-10.76a7.25,7.25,0,0,0-3.63.93Z"/><path class="cls-8" d="M486.32,615.2C480,604,472,602.28,467.46,604.93s-6.21,10.68-.25,18.45c4.82,6.29,12.82,9.54,20.51,12.51C488.34,628.06,489.43,620.72,486.32,615.2Z"/><path class="cls-2" d="M487.71,637.09a1.2,1.2,0,0,1-.43-.08c-7.05-2.72-15.83-6.11-21-12.9-3.31-4.32-4.71-9.26-3.86-13.56a9.18,9.18,0,0,1,9.29-7.91c5.68,0,11.4,4.37,15.68,12,2.95,5.23,2.37,11.84,1.76,18.83-.07.84-.15,1.69-.22,2.54a1.2,1.2,0,0,1-1.19,1.1Zm-16-32.05a7.25,7.25,0,0,0-3.63.93,7.37,7.37,0,0,0-3.31,5c-.72,3.62.52,7.87,3.41,11.64,4.44,5.8,12,9,18.5,11.54l.08-1c.58-6.61,1.13-12.86-1.46-17.45C481.43,609,476.47,605,471.68,605Z"/><path class="cls-8" d="M521.61,677c-2-1.51-5.9-2.77-10.29-4.41-.06,5.42,0,10.28,2.19,13.91s6.56,4.9,9.13,3C526.52,686.71,526.68,680.79,521.61,677Z"/><path class="cls-2" d="M519.8,691.6h0a8.83,8.83,0,0,1-7.33-4.49c-2.28-3.87-2.41-8.87-2.35-14.53a1.2,1.2,0,0,1,1.62-1.11l2.17.79c3.55,1.29,6.61,2.41,8.43,3.77a10.05,10.05,0,0,1,4.36,8,8,8,0,0,1-3.34,6.47A6,6,0,0,1,519.8,691.6Zm-7.29-17.29c0,4.59.28,8.62,2,11.59a6.4,6.4,0,0,0,5.26,3.31,3.6,3.6,0,0,0,2.14-.65,5.63,5.63,0,0,0,2.36-4.55,7.7,7.7,0,0,0-3.4-6.06c-1.53-1.15-4.44-2.21-7.81-3.44Z"/><path class="cls-4" d="M1104.06,825.36l-4.21-2.43a8.38,8.38,0,0,1-4.19-7.26V796.23a8.38,8.38,0,0,0-4.19-7.26h0a8.38,8.38,0,0,0-8.42,0l-11,6.34a2.77,2.77,0,0,0-1.22,1.5h-.4l-8.61,4.52,6,3.41a5.16,5.16,0,0,1,2.61,4.48v23.15"/><path class="cls-2" d="M1070.47,833.59a1.2,1.2,0,0,1-1.2-1.2V809.24a4,4,0,0,0-2-3.44l-6-3.41a1.2,1.2,0,0,1,0-2.1l8.61-4.52.17-.07a3.89,3.89,0,0,1,1.4-1.4l11-6.34a9.58,9.58,0,0,1,14.4,8.27v19.44a7.2,7.2,0,0,0,3.59,6.22l4.21,2.43a1.2,1.2,0,1,1-1.2,2.07l-4.21-2.43a9.6,9.6,0,0,1-4.79-8.29V796.23a7.18,7.18,0,0,0-10.8-6.2l-11,6.34a1.56,1.56,0,0,0-.69.86,1.2,1.2,0,0,1-1.13.8h-.1l-6.41,3.36,4.09,2.32a6.36,6.36,0,0,1,3.22,5.52v23.15A1.2,1.2,0,0,1,1070.47,833.59Z"/><path class="cls-4" d="M1083.05,789l-11,6.34a2.83,2.83,0,0,0,0,4.89h0a8.38,8.38,0,0,1,4.19,7.26v19.44a8.38,8.38,0,0,0,4.19,7.26l4.21,2.43"/><path class="cls-2" d="M1084.7,837.81a1.2,1.2,0,0,1-.6-.16l-4.21-2.43a9.6,9.6,0,0,1-4.79-8.29V807.48a7.2,7.2,0,0,0-3.59-6.22,4,4,0,0,1,0-7l11-6.34a1.2,1.2,0,1,1,1.2,2.07l-11,6.34a1.61,1.61,0,0,0-.8,1.41,1.59,1.59,0,0,0,.81,1.41,9.6,9.6,0,0,1,4.79,8.3v19.44a7.2,7.2,0,0,0,3.59,6.22l4.21,2.43a1.2,1.2,0,0,1-.6,2.24Z"/><path class="cls-4" d="M1157,794.77l-4.21-2.43a8.38,8.38,0,0,1-4.19-7.26V765.65a8.38,8.38,0,0,0-12.61-7.24l-28.64,16.72a2.76,2.76,0,0,0-1.19,1.41h-1l-8.61,4.52,6,3.41a5.16,5.16,0,0,1,2.61,4.48V812.1"/><path class="cls-2" d="M1105.17,813.3a1.2,1.2,0,0,1-1.2-1.2V788.95a4,4,0,0,0-2-3.44l-6-3.41a1.2,1.2,0,0,1,0-2.1l8.61-4.52a1.2,1.2,0,0,1,.56-.14h.24a3.89,3.89,0,0,1,1.31-1.25l28.64-16.72a9.58,9.58,0,0,1,14.41,8.27v19.44a7.2,7.2,0,0,0,3.59,6.22l4.21,2.43a1.2,1.2,0,1,1-1.2,2.07l-4.21-2.43a9.6,9.6,0,0,1-4.79-8.29V765.65a7.18,7.18,0,0,0-10.8-6.2l-28.64,16.72a1.58,1.58,0,0,0-.67.81,1.2,1.2,0,0,1-1.12.76h-.67l-6.4,3.36,4.09,2.32a6.36,6.36,0,0,1,3.22,5.52V812.1A1.2,1.2,0,0,1,1105.17,813.3Z"/><path class="cls-4" d="M1230,740.23v-34a1.6,1.6,0,0,1,1.6-1.6h7.93a1.6,1.6,0,0,1,1.59,1.4l4.2,36.82"/><path class="cls-2" d="M1245.27,744.1a1.2,1.2,0,0,1-1.19-1.06l-4.2-36.82a.4.4,0,0,0-.4-.34h-7.93a.4.4,0,0,0-.4.4v34a1.2,1.2,0,0,1-2.4,0v-34a2.8,2.8,0,0,1,2.8-2.8h7.93a2.8,2.8,0,0,1,2.77,2.46l4.2,36.83a1.2,1.2,0,0,1-1.05,1.33Z"/><path class="cls-4" d="M1257.19,736.65l-4.21-2.43a8.38,8.38,0,0,1-4.19-7.26V707.52a8.38,8.38,0,0,0-4.19-7.26h0a8.38,8.38,0,0,0-8.42,0l-4.82,2.77a2.82,2.82,0,0,0,0,4.89h0a8.38,8.38,0,0,1,4.19,7.26v19.44a8.38,8.38,0,0,0,4.19,7.26l4.21,2.43"/><path class="cls-2" d="M1244,745.53a1.19,1.19,0,0,1-.6-.16l-4.21-2.43a9.6,9.6,0,0,1-4.79-8.3V715.2a7.21,7.21,0,0,0-3.59-6.22,4,4,0,0,1,0-7l4.83-2.78a9.58,9.58,0,0,1,14.4,8.28V727a7.2,7.2,0,0,0,3.59,6.22l4.21,2.43a1.2,1.2,0,0,1-1.2,2.07l-4.21-2.43a9.6,9.6,0,0,1-4.79-8.29V707.52a7.18,7.18,0,0,0-10.81-6.2L1232,704.1a1.61,1.61,0,0,0-.8,1.41,1.59,1.59,0,0,0,.81,1.4,9.61,9.61,0,0,1,4.79,8.3v19.44a7.2,7.2,0,0,0,3.59,6.22l4.21,2.43a1.2,1.2,0,0,1-.6,2.23Z"/><path class="cls-4" d="M1107.32,775.13a2.82,2.82,0,0,0,0,4.89h0a8.38,8.38,0,0,1,4.19,7.26v19.44a8.38,8.38,0,0,0,4.19,7.26l4.21,2.43"/><path class="cls-2" d="M1119.93,817.6a1.18,1.18,0,0,1-.6-.16l-4.21-2.43a9.6,9.6,0,0,1-4.79-8.29V787.27a7.2,7.2,0,0,0-3.59-6.22,4,4,0,0,1,0-7,1.2,1.2,0,1,1,1.21,2.07,1.59,1.59,0,0,0-.8,1.41,1.61,1.61,0,0,0,.81,1.41,9.6,9.6,0,0,1,4.79,8.29v19.44a7.21,7.21,0,0,0,3.59,6.22l4.21,2.43a1.2,1.2,0,0,1-.6,2.23Z"/></g></g></svg>