<svg xmlns="http://www.w3.org/2000/svg" viewBox="0 0 128.09 138.95"><defs><style>.cls-1{fill:#d7e3f4;}.cls-2{fill:#253e8c;}.cls-3{fill:#4b77e2;}.cls-4{fill:#fff;}</style></defs><title>자산 7</title><g id="레이어_2" data-name="레이어 2"><g id="Layer_3" data-name="Layer 3"><polygon class="cls-1" points="126.54 29.45 1.55 29.45 1.55 113.4 51.9 113.4 51.9 117.69 76.2 117.69 76.2 113.4 126.54 113.4 126.54 29.45"/><path class="cls-2" d="M76.2,119.23H51.9a1.55,1.55,0,0,1-1.55-1.55v-2.74H1.55A1.55,1.55,0,0,1,0,113.4V29.45A1.55,1.55,0,0,1,1.55,27.9h125a1.55,1.55,0,0,1,1.55,1.55V113.4a1.55,1.55,0,0,1-1.55,1.55H77.75v2.74A1.55,1.55,0,0,1,76.2,119.23Zm-22.75-3.1h21.2V113.4a1.55,1.55,0,0,1,1.55-1.55H125V31H3.1v80.85H51.9a1.55,1.55,0,0,1,1.55,1.55Z"/><path class="cls-2" d="M64.05,31a1.55,1.55,0,0,1-1.55-1.55V8.82a6.23,6.23,0,0,0-1.41-4.21,5.69,5.69,0,0,0-4.3-1.51c-6.72,0-7.28,5.52-7.28,5.58v9.89a1.55,1.55,0,0,1-3.1,0V8.66C46.4,6.94,48.25,0,56.78,0a8.62,8.62,0,0,1,6.58,2.51A9.31,9.31,0,0,1,65.6,8.92V29.45A1.55,1.55,0,0,1,64.05,31Z"/><path class="cls-2" d="M37.56,138.95c-9.82,0-12.59-8.49-12.69-13a1.55,1.55,0,0,1,3.1-.06c0,.4.36,10,9.59,10,3.09,0,5.41-.8,6.87-2.37a7.62,7.62,0,0,0,1.82-5.11v-13.9a1.55,1.55,0,0,1,3.1,0v13.79a10.6,10.6,0,0,1-2.65,7.33C44.63,137.82,41.55,138.95,37.56,138.95Z"/><path class="cls-2" d="M64.05,106.83a1.55,1.55,0,0,1-1.55-1.55V30.07C60.43,28,50.39,18.46,37,18.09,27.73,17.8,18.66,22,10.14,30.54a1.55,1.55,0,0,1-2.19-2.19C17.1,19.2,27,14.76,37.14,15c16.31.46,27.59,12.9,28.06,13.42a1.55,1.55,0,0,1,.39,1v75.83A1.55,1.55,0,0,1,64.05,106.83Z"/><polyline class="cls-3" points="9.04 105.28 119.06 105.28 119.06 76.88 9.04 76.88"/><path class="cls-2" d="M119.06,106.83H9a1.55,1.55,0,1,1,0-3.1H117.51V78.43H9a1.55,1.55,0,1,1,0-3.1h110a1.55,1.55,0,0,1,1.55,1.55v28.4A1.55,1.55,0,0,1,119.06,106.83Z"/><path class="cls-4" d="M9,29.45S35,.38,64,29.45v75.83s-30.25-24.75-55,0Z"/><path class="cls-2" d="M9,106.83a1.55,1.55,0,0,1-1.55-1.55V29.45a1.55,1.55,0,0,1,.39-1C8.37,27.87,20.07,15,36.87,15c9.89,0,19.4,4.5,28.28,13.37a1.55,1.55,0,0,1,.45,1.1v75.83a1.55,1.55,0,0,1-2.53,1.2c-.13-.11-13.24-10.65-28.77-10.65-9,0-17.17,3.55-24.17,10.55A1.55,1.55,0,0,1,9,106.83ZM34.3,92.72c12.64,0,23.46,6.27,28.2,9.5V30.09c-8.14-8-16.76-12-25.63-12-13.77,0-24.17,9.83-26.28,12v71.66A35.65,35.65,0,0,1,34.3,92.72Z"/><path class="cls-4" d="M64.05,29.45s25.94-29.07,55,0v75.83s-30.25-24.75-55,0Z"/><path class="cls-2" d="M64.05,106.83a1.55,1.55,0,0,1-1.55-1.55V29.45a1.55,1.55,0,0,1,.39-1c.49-.55,12.19-13.44,29-13.44,9.89,0,19.4,4.5,28.28,13.37a1.55,1.55,0,0,1,.45,1.1v75.83a1.55,1.55,0,0,1-2.53,1.2c-.13-.11-13.24-10.65-28.77-10.65-9,0-17.17,3.55-24.17,10.55A1.55,1.55,0,0,1,64.05,106.83Zm25.26-14.1c12.64,0,23.46,6.27,28.2,9.5V30.09c-8.14-8-16.76-12-25.63-12-13.8,0-24.17,9.83-26.28,12v71.67A35.65,35.65,0,0,1,89.32,92.72Z"/></g></g></svg>