<svg xmlns="http://www.w3.org/2000/svg" viewBox="0 0 132.43 136.41"><defs><style>.cls-1{fill:#f0f5fc;}.cls-2{fill:#253e8c;}.cls-3{fill:#d7e3f4;}.cls-4{fill:#4b77e2;}.cls-5{fill:#fff;}</style></defs><title>자산 4</title><g id="레이어_2" data-name="레이어 2"><g id="Layer_3" data-name="Layer 3"><polygon class="cls-1" points="91.42 26.79 91.44 126.44 41.01 118.03 40.99 18.38 91.42 26.79"/><path class="cls-2" d="M91.44,128l-.25,0-50.42-8.41A1.55,1.55,0,0,1,39.46,118l0-99.65a1.55,1.55,0,0,1,1.8-1.53l50.43,8.41A1.55,1.55,0,0,1,93,26.79l0,99.34a1.57,1.57,0,0,1,0,.31A1.5,1.5,0,0,1,91.45,128ZM42.56,116.72l47.32,7.89,0-96.51L42.54,20.21Z"/><polygon class="cls-3" points="130.87 10.2 130.88 109.85 91.45 126.68 91.44 27.03 130.87 10.2"/><path class="cls-2" d="M91.45,128.23a1.55,1.55,0,0,1-1.55-1.55V27a1.55,1.55,0,0,1,.94-1.43L130.26,8.78a1.55,1.55,0,0,1,2.16,1.42v99.65a1.55,1.55,0,0,1-.94,1.43L92.06,128.1A1.54,1.54,0,0,1,91.45,128.23ZM93,28.05v96.28l36.33-15.51V12.55Z"/><polygon class="cls-3" points="1.56 134.86 1.55 35.2 40.98 18.38 40.99 118.03 1.56 134.86"/><path class="cls-2" d="M1.56,136.41A1.55,1.55,0,0,1,0,134.86V35.21a1.55,1.55,0,0,1,.94-1.42L40.37,17a1.55,1.55,0,0,1,2.16,1.43V118a1.55,1.55,0,0,1-.94,1.43L2.17,136.28A1.55,1.55,0,0,1,1.56,136.41ZM3.1,36.23v96.28L39.44,117V20.72Z"/><path class="cls-4" d="M104.63,24.2C104.63,36.71,91.28,58,82,62.69c-10.57-6.14-22.65-26-22.65-38.49a22.65,22.65,0,0,1,45.3,0Z"/><path class="cls-2" d="M82,64.24A1.53,1.53,0,0,1,81.2,64C69.82,57.42,57.78,36.94,57.78,24.2a24.2,24.2,0,0,1,48.4,0c0,13.21-14,35-23.5,39.87A1.56,1.56,0,0,1,82,64.24ZM82,3.1a21.12,21.12,0,0,0-21.1,21.1C60.88,35.57,71.8,54.37,82,60.9c8.6-5.13,21.06-25,21.06-36.7A21.12,21.12,0,0,0,82,3.1Z"/><circle class="cls-5" cx="81.98" cy="25.21" r="15.47"/><path class="cls-2" d="M82,42.23a17,17,0,1,1,17-17A17,17,0,0,1,82,42.23Zm0-30.94A13.92,13.92,0,1,0,95.9,25.21,13.93,13.93,0,0,0,82,11.29Z"/><path class="cls-2" d="M7.19,48.63a1.55,1.55,0,0,1-.61-3l11.67-5a1.55,1.55,0,1,1,1.22,2.85l-11.67,5A1.54,1.54,0,0,1,7.19,48.63Z"/><path class="cls-2" d="M13,53.72a1.55,1.55,0,0,1-1.55-1.55V37a1.55,1.55,0,0,1,3.1,0V52.17A1.55,1.55,0,0,1,13,53.72Z"/><path class="cls-2" d="M9.67,125.08a1.55,1.55,0,0,1-.61-3l6.71-2.86A1.55,1.55,0,0,1,17,122.09L10.28,125A1.54,1.54,0,0,1,9.67,125.08Z"/><path class="cls-2" d="M25.61,118.18a1.55,1.55,0,0,1-.61-3l6.71-2.86a1.55,1.55,0,1,1,1.22,2.85l-6.71,2.87A1.54,1.54,0,0,1,25.61,118.18Z"/><path class="cls-2" d="M48.58,106.37a1.55,1.55,0,0,1-.71-2.93l6.5-3.32a1.55,1.55,0,1,1,1.41,2.76l-6.5,3.32A1.55,1.55,0,0,1,48.58,106.37Z"/><path class="cls-2" d="M61.59,95.52a1.55,1.55,0,0,1-1.06-2.68l5.34-5A1.55,1.55,0,1,1,68,90.13l-5.34,5A1.55,1.55,0,0,1,61.59,95.52Z"/><path class="cls-2" d="M75.65,79a1.55,1.55,0,0,1-1.39-2.24l3.23-6.54a1.55,1.55,0,1,1,2.78,1.37L77,78.09A1.55,1.55,0,0,1,75.65,79Z"/></g></g></svg>