<svg xmlns="http://www.w3.org/2000/svg" viewBox="0 0 89.03 136.98"><defs><style>.cls-1{fill:#d7e3f4;}.cls-2{fill:#253e8c;}.cls-3{fill:#4b77e2;}</style></defs><title>자산 5</title><g id="레이어_2" data-name="레이어 2"><g id="Layer_3" data-name="Layer 3"><path class="cls-1" d="M74.07,45.88V31.1A29.55,29.55,0,1,0,15,31.1V45.88"/><path class="cls-2" d="M74.07,47.43a1.55,1.55,0,0,1-1.55-1.55V31.1a28,28,0,1,0-56,0V45.88a1.55,1.55,0,1,1-3.1,0V31.1a31.1,31.1,0,1,1,62.21,0V45.88A1.55,1.55,0,0,1,74.07,47.43Z"/><path class="cls-3" d="M15,45.88V60.66a29.55,29.55,0,1,0,59.11,0V45.88"/><path class="cls-2" d="M44.52,91.76a31.14,31.14,0,0,1-31.1-31.11V45.88a1.55,1.55,0,0,1,3.1,0V60.66a28,28,0,1,0,56,0V45.88a1.55,1.55,0,0,1,3.1,0V60.66A31.14,31.14,0,0,1,44.52,91.76Z"/><path class="cls-2" d="M44.52,105.55A44.57,44.57,0,0,1,0,61V29.25a1.55,1.55,0,1,1,3.1,0V61a41.42,41.42,0,1,0,82.83,0V29.25a1.55,1.55,0,1,1,3.1,0V61A44.57,44.57,0,0,1,44.52,105.55Z"/><path class="cls-2" d="M87.48,47.43H1.55a1.55,1.55,0,1,1,0-3.1H87.48a1.55,1.55,0,1,1,0,3.1Z"/><path class="cls-2" d="M32.87,22.18a1.55,1.55,0,0,1-1.55-1.55V4.3a1.55,1.55,0,0,1,3.1,0V20.63A1.55,1.55,0,0,1,32.87,22.18Z"/><path class="cls-2" d="M44.52,22.18A1.55,1.55,0,0,1,43,20.63V1.79a1.55,1.55,0,0,1,3.1,0V20.63A1.55,1.55,0,0,1,44.52,22.18Z"/><path class="cls-2" d="M56.16,22.18a1.55,1.55,0,0,1-1.55-1.55V4.3a1.55,1.55,0,0,1,3.1,0V20.63A1.55,1.55,0,0,1,56.16,22.18Z"/><path class="cls-2" d="M34.53,137A1.55,1.55,0,0,1,33,135.43V103.36a1.55,1.55,0,0,1,3.1,0v32.07A1.55,1.55,0,0,1,34.53,137Z"/><path class="cls-2" d="M54.5,137A1.55,1.55,0,0,1,53,135.43V102.81a1.55,1.55,0,0,1,3.1,0v32.61A1.55,1.55,0,0,1,54.5,137Z"/><path class="cls-2" d="M74.07,137H15a1.55,1.55,0,1,1,0-3.1H74.07a1.55,1.55,0,0,1,0,3.1Z"/><path class="cls-2" d="M57,79.12a1.55,1.55,0,0,1-.79-2.89c10-5.91,7.3-20.87,7.27-21a1.55,1.55,0,0,1,3-.58c.13.7,3.17,17.27-8.74,24.28A1.54,1.54,0,0,1,57,79.12Z"/><path class="cls-2" d="M43.82,83.12c-3.1,0-7-.62-9.32-3.29a1.55,1.55,0,0,1,2.33-2c2.58,2.93,8.93,2.32,11.16,1.83a1.55,1.55,0,0,1,.66,3A24.8,24.8,0,0,1,43.82,83.12Z"/></g></g></svg>