<svg xmlns="http://www.w3.org/2000/svg" viewBox="0 0 119.61 125.52"><defs><style>.cls-1{fill:#d7e3f4;}.cls-2{fill:#253e8c;}.cls-3{fill:#4b77e2;}</style></defs><title>자산 10</title><g id="레이어_2" data-name="레이어 2"><g id="Layer_3" data-name="Layer 3"><path class="cls-1" d="M89.14,27.7l28.92-.07V109.5S116.81,124,103.6,124,89.14,109.5,89.14,109.5Z"/><path class="cls-2" d="M103.6,125.52c-11.57,0-15.53-10.38-16-15.88V27.7a1.55,1.55,0,0,1,1.55-1.55l28.92-.07h0a1.55,1.55,0,0,1,1.55,1.55V109.5C119.13,115.13,115.17,125.52,103.6,125.52ZM90.69,29.25V109.5c0,.4,1.31,12.91,12.91,12.91s12.87-12.52,12.92-13V29.18Z"/><path class="cls-2" d="M103.6,125.52a16,16,0,0,1-16-16,1.55,1.55,0,0,1,3.1,0,12.91,12.91,0,1,0,25.83,0,1.55,1.55,0,0,1,3.1,0A16,16,0,0,1,103.6,125.52Z"/><path class="cls-2" d="M103.6,125.52H16a16,16,0,0,1-16-16V1.55A1.55,1.55,0,0,1,1.55,0H89.14a1.55,1.55,0,0,1,1.55,1.55v24.6l27.37-.06h0a1.55,1.55,0,0,1,1.55,1.55V109.5A16,16,0,0,1,103.6,125.52ZM3.1,3.1V109.5A12.93,12.93,0,0,0,16,122.42H103.6a12.93,12.93,0,0,0,12.91-12.91V29.18l-25.83.06V109.5a1.55,1.55,0,1,1-3.1,0V27.7h0V3.1Z"/><rect class="cls-3" x="13.69" y="27.78" width="25.59" height="25.18"/><path class="cls-2" d="M39.28,54.51H13.69A1.55,1.55,0,0,1,12.14,53V27.78a1.55,1.55,0,0,1,1.55-1.55H39.28a1.55,1.55,0,0,1,1.55,1.55V53A1.55,1.55,0,0,1,39.28,54.51Zm-24-3.1H37.73V29.33H15.24Z"/><rect class="cls-3" x="13.69" y="67.73" width="25.59" height="25.18"/><path class="cls-2" d="M39.28,94.46H13.69a1.55,1.55,0,0,1-1.55-1.55V67.73a1.55,1.55,0,0,1,1.55-1.55H39.28a1.55,1.55,0,0,1,1.55,1.55V92.91A1.55,1.55,0,0,1,39.28,94.46Zm-24-3.1H37.73V69.28H15.24Z"/><path class="cls-2" d="M73.09,29.33H52.3a1.55,1.55,0,1,1,0-3.1H73.09a1.55,1.55,0,0,1,0,3.1Z"/><path class="cls-2" d="M73.09,38.24H52.3a1.55,1.55,0,1,1,0-3.1H73.09a1.55,1.55,0,0,1,0,3.1Z"/><path class="cls-2" d="M73.09,47.15H52.3a1.55,1.55,0,0,1,0-3.1H73.09a1.55,1.55,0,0,1,0,3.1Z"/><path class="cls-2" d="M73.09,69.37H52.3a1.55,1.55,0,1,1,0-3.1H73.09a1.55,1.55,0,0,1,0,3.1Z"/><path class="cls-2" d="M73.09,78.28H52.3a1.55,1.55,0,0,1,0-3.1H73.09a1.55,1.55,0,0,1,0,3.1Z"/><path class="cls-2" d="M73.09,87.19H52.3a1.55,1.55,0,0,1,0-3.1H73.09a1.55,1.55,0,0,1,0,3.1Z"/><path class="cls-2" d="M52.3,13.82H33.83a1.55,1.55,0,0,1,0-3.1H52.3a1.55,1.55,0,0,1,0,3.1Z"/></g></g></svg>