<svg xmlns="http://www.w3.org/2000/svg" viewBox="0 0 137.14 100.69"><defs><style>.cls-1{fill:#253e8c;}.cls-2{fill:#d7e3f4;}.cls-3{fill:#fff;}</style></defs><title>자산 8</title><g id="레이어_2" data-name="레이어 2"><g id="Layer_3" data-name="Layer 3"><path class="cls-1" d="M112.34,100.69H33.4a10.84,10.84,0,0,1-7.58-18.6H17.74a10.84,10.84,0,0,1-7.56-18.62,10.85,10.85,0,0,1,.67-21.68h0a10.84,10.84,0,0,1,7.58-18.6h93.88A24.82,24.82,0,0,1,137.14,48V75.9A24.82,24.82,0,0,1,112.34,100.69ZM35,80.54a1.55,1.55,0,0,1-1.55,1.55,7.75,7.75,0,0,0,0,15.5h78.94A21.72,21.72,0,0,0,134,75.9V48a21.72,21.72,0,0,0-21.7-21.69H18.46a7.75,7.75,0,1,0,0,15.5,1.55,1.55,0,0,1,0,3.1H10.85a7.75,7.75,0,0,0,0,15.5h6.89a1.55,1.55,0,1,1,0,3.1,7.75,7.75,0,1,0,0,15.5H33.4A1.55,1.55,0,0,1,35,80.54Z"/><path class="cls-1" d="M59.69,44.9H18.46a1.55,1.55,0,0,1,0-3.1H59.69a1.55,1.55,0,0,1,0,3.1Z"/><path class="cls-1" d="M59.69,63.5H18.46a1.55,1.55,0,0,1,0-3.1H59.69a1.55,1.55,0,1,1,0,3.1Z"/><path class="cls-1" d="M59.25,82.09H18A1.55,1.55,0,1,1,18,79H59.25a1.55,1.55,0,0,1,0,3.1Z"/><path class="cls-2" d="M84.13,20.34A18.77,18.77,0,0,0,50.31,9.11,18.74,18.74,0,0,0,16.74,23.32s0,.09,0,.14c0,12.51,18,32.35,33.7,38.49,13.84-4.73,33.7-26,33.7-38.49A12,12,0,0,0,84,22C84.1,21.48,84.13,20.91,84.13,20.34Z"/><path class="cls-1" d="M50.43,63.5a1.56,1.56,0,0,1-.56-.11C33,56.81,15.18,36.28,15.18,23.46c0,0,0,0,0-.05a20.05,20.05,0,0,1-.25-3.07A20.36,20.36,0,0,1,35.27,0a20.13,20.13,0,0,1,15,6.67A20.12,20.12,0,0,1,65.34,0,20.36,20.36,0,0,1,85.68,20.34c0,.57,0,1.13-.08,1.69a12.91,12.91,0,0,1,.08,1.43c0,11.59-18,34.21-34.75,40A1.52,1.52,0,0,1,50.43,63.5ZM35.27,3.1a17.12,17.12,0,0,0-17,20,1.53,1.53,0,0,1,0,.29C18.28,34.89,35,54,50.46,60.29c12.9-4.78,32.12-25,32.12-36.83a10.37,10.37,0,0,0-.08-1.23,1.61,1.61,0,0,1,0-.32c0-.52.08-1,.08-1.56a17.22,17.22,0,0,0-31-10.3,1.6,1.6,0,0,1-2.48,0A17.1,17.1,0,0,0,35.27,3.1Z"/><path class="cls-3" d="M83.62,24.75H64A9.14,9.14,0,0,0,64,43H83.62A19.61,19.61,0,0,0,101,53.51h17.64"/><path class="cls-1" d="M118.61,55.06H101A21.13,21.13,0,0,1,82.71,44.58H64A10.69,10.69,0,0,1,64,23.2H83.62a1.55,1.55,0,0,1,0,3.1H64a7.59,7.59,0,0,0,0,15.18H83.62a1.55,1.55,0,0,1,1.37.83A18,18,0,0,0,101,52h17.64a1.55,1.55,0,1,1,0,3.1Z"/><path class="cls-1" d="M25,25.29a1.55,1.55,0,0,1-1.54-1.41c-.39-4.34.6-7.9,2.94-10.57,3.79-4.34,9.71-4.66,10-4.67a1.55,1.55,0,0,1,.14,3.1c-.1,0-4.91.31-7.79,3.63-1.75,2-2.48,4.79-2.17,8.24a1.55,1.55,0,0,1-1.41,1.68Z"/><path class="cls-1" d="M42.29,50.28a1.54,1.54,0,0,1-1-.33C30.7,41.68,27.08,33.81,26.93,33.48a1.55,1.55,0,0,1,2.82-1.28h0c0,.08,3.5,7.53,13.49,15.3a1.55,1.55,0,0,1-1,2.77Z"/><path class="cls-1" d="M89.94,26.3h-10a1.55,1.55,0,1,1,0-3.1h10a1.55,1.55,0,1,1,0,3.1Z"/></g></g></svg>